<?xml version="1.0" encoding="UTF-8" standalone="no"?>
<!-- Created with Inkscape (http://www.inkscape.org/) -->

<svg
   xmlns:dc="http://purl.org/dc/elements/1.1/"
   xmlns:cc="http://creativecommons.org/ns#"
   xmlns:rdf="http://www.w3.org/1999/02/22-rdf-syntax-ns#"
   xmlns:svg="http://www.w3.org/2000/svg"
   xmlns="http://www.w3.org/2000/svg"
   xmlns:xlink="http://www.w3.org/1999/xlink"
   xmlns:sodipodi="http://sodipodi.sourceforge.net/DTD/sodipodi-0.dtd"
   xmlns:inkscape="http://www.inkscape.org/namespaces/inkscape"
   width="744.09448819"
   height="1052.3622047"
   id="svg2"
   version="1.1"
   inkscape:version="0.48.4 r9939"
   sodipodi:docname="flame.svg">
  <defs
     id="defs4">
    <linearGradient
       inkscape:collect="always"
       id="linearGradient3853">
      <stop
         style="stop-color:#cccccc;stop-opacity:1;"
         offset="0"
         id="stop3855" />
      <stop
         style="stop-color:#333333;stop-opacity:1"
         offset="1"
         id="stop3857" />
    </linearGradient>
    <linearGradient
       inkscape:collect="always"
       id="linearGradient4009">
      <stop
         style="stop-color:#ffffff;stop-opacity:1;"
         offset="0"
         id="stop4011" />
      <stop
         style="stop-color:#ffffff;stop-opacity:0.01"
         offset="1"
         id="stop4013" />
    </linearGradient>
    <filter
       inkscape:collect="always"
       id="filter3817"
       x="-0.19857279"
       width="1.3971456"
       y="-0.058452532"
       height="1.1169051">
      <feGaussianBlur
         inkscape:collect="always"
         stdDeviation="10.911709"
         id="feGaussianBlur3819" />
    </filter>
    <filter
       inkscape:collect="always"
       id="filter3879"
       x="-0.22738042"
       width="1.4547608"
       y="-0.060844211"
       height="1.1216884">
      <feGaussianBlur
         inkscape:collect="always"
         stdDeviation="12.581159"
         id="feGaussianBlur3881" />
    </filter>
    <filter
       inkscape:collect="always"
       id="filter3912"
       x="-0.21722972"
       width="1.4344594"
       y="-0.15366437"
       height="1.3073287">
      <feGaussianBlur
         inkscape:collect="always"
         stdDeviation="11.687488"
         id="feGaussianBlur3914" />
    </filter>
    <filter
       inkscape:collect="always"
       id="filter3918">
      <feGaussianBlur
         inkscape:collect="always"
         stdDeviation="3.8958293"
         id="feGaussianBlur3920" />
    </filter>
    <filter
       inkscape:collect="always"
       id="filter3941">
      <feGaussianBlur
         inkscape:collect="always"
         stdDeviation="2.4791821"
         id="feGaussianBlur3943" />
    </filter>
    <filter
       inkscape:collect="always"
       id="filter3964">
      <feGaussianBlur
         inkscape:collect="always"
         stdDeviation="6.2261944"
         id="feGaussianBlur3966" />
    </filter>
    <filter
       inkscape:collect="always"
       id="filter3982"
       x="-0.10512512"
       width="1.2102502"
       y="-0.055594082"
       height="1.1111882">
      <feGaussianBlur
         inkscape:collect="always"
         stdDeviation="7.2638935"
         id="feGaussianBlur3984" />
    </filter>
    <radialGradient
       inkscape:collect="always"
       xlink:href="#linearGradient4009"
       id="radialGradient4015"
       cx="259.35187"
       cy="448.36206"
       fx="259.35187"
       fy="448.36206"
       r="69.83906"
       gradientTransform="matrix(1.1714787,-0.00999959,0.02440344,2.8589297,-55.521238,-803.91389)"
       gradientUnits="userSpaceOnUse" />
    <filter
       inkscape:collect="always"
       id="filter3847"
       x="-0.12951162"
       width="1.2590232"
       y="-0.1117899"
       height="1.2235798">
      <feGaussianBlur
         inkscape:collect="always"
         stdDeviation="20.720707"
         id="feGaussianBlur3849" />
    </filter>
    <linearGradient
       inkscape:collect="always"
       xlink:href="#linearGradient3853"
       id="linearGradient3859"
       x1="942.74829"
       y1="1219.2555"
       x2="806.08258"
       y2="1462.6501"
       gradientUnits="userSpaceOnUse" />
    <filter
       inkscape:collect="always"
       id="filter3877"
       x="-0.11115058"
       width="1.2223012"
       y="-0.21038477"
       height="1.4207695">
      <feGaussianBlur
         inkscape:collect="always"
         stdDeviation="3.3780262"
         id="feGaussianBlur3879" />
    </filter>
    <filter
       inkscape:collect="always"
       id="filter3903">
      <feGaussianBlur
         inkscape:collect="always"
         stdDeviation="1.5368564"
         id="feGaussianBlur3905" />
    </filter>
    <filter
       inkscape:collect="always"
       id="filter3917"
       x="-0.26374858"
       width="1.5274972"
       y="-0.29956802"
       height="1.599136">
      <feGaussianBlur
         inkscape:collect="always"
         stdDeviation="2.1144921"
         id="feGaussianBlur3919" />
    </filter>
    <filter
       inkscape:collect="always"
       id="filter3955"
       x="-0.25685128"
       width="1.5137026"
       y="-0.3962965"
       height="1.792593">
      <feGaussianBlur
         inkscape:collect="always"
         stdDeviation="4.5735141"
         id="feGaussianBlur3957" />
    </filter>
    <radialGradient
       inkscape:collect="always"
       xlink:href="#linearGradient4009"
       id="radialGradient3981"
       gradientUnits="userSpaceOnUse"
       gradientTransform="matrix(1.1714787,-0.00999959,0.02440344,2.8589297,-55.521238,-803.91389)"
       cx="259.35187"
       cy="448.36206"
       fx="259.35187"
       fy="448.36206"
       r="69.83906" />
    <linearGradient
       inkscape:collect="always"
       xlink:href="#linearGradient3853"
       id="linearGradient3983"
       gradientUnits="userSpaceOnUse"
       x1="942.74829"
       y1="1219.2555"
       x2="806.08258"
       y2="1462.6501" />
    <radialGradient
       inkscape:collect="always"
       xlink:href="#linearGradient4009"
       id="radialGradient3997"
       gradientUnits="userSpaceOnUse"
       gradientTransform="matrix(1.1714787,-0.00999959,0.02440344,2.8589297,-55.521238,-803.91389)"
       cx="259.35187"
       cy="448.36206"
       fx="259.35187"
       fy="448.36206"
       r="69.83906" />
    <linearGradient
       inkscape:collect="always"
       xlink:href="#linearGradient3853"
       id="linearGradient3999"
       gradientUnits="userSpaceOnUse"
       x1="942.74829"
       y1="1219.2555"
       x2="806.08258"
       y2="1462.6501" />
    <radialGradient
       inkscape:collect="always"
       xlink:href="#linearGradient4009"
       id="radialGradient4009"
       gradientUnits="userSpaceOnUse"
       gradientTransform="matrix(0.47045517,-0.00401574,0.0098002,1.1481201,89.047957,-68.708215)"
       cx="259.35187"
       cy="448.36206"
       fx="259.35187"
       fy="448.36206"
       r="69.83906" />
    <radialGradient
       inkscape:collect="always"
       xlink:href="#linearGradient4009"
       id="radialGradient4036"
       gradientUnits="userSpaceOnUse"
       gradientTransform="matrix(0.50210851,-0.01380796,0.02521289,0.91683405,73.69792,62.566452)"
       cx="257.64993"
       cy="469.2099"
       fx="257.64993"
       fy="469.2099"
       r="69.83906" />
    <radialGradient
       inkscape:collect="always"
       xlink:href="#linearGradient4009"
       id="radialGradient4060"
       gradientUnits="userSpaceOnUse"
       gradientTransform="matrix(-0.19605417,-0.01371978,0.05600583,-0.80031713,235.53251,877.96382)"
       cx="258.36514"
       cy="501.09088"
       fx="258.36514"
       fy="501.09088"
       r="69.83906" />
    <filter
       inkscape:collect="always"
       id="filter4070"
       x="-0.1353455"
       width="1.270691"
       y="-0.036216792"
       height="1.0724336">
      <feGaussianBlur
         inkscape:collect="always"
         stdDeviation="1.9071371"
         id="feGaussianBlur4072" />
    </filter>
  </defs>
  <sodipodi:namedview
     id="base"
     pagecolor="#ffffff"
     bordercolor="#666666"
     borderopacity="1.0"
     inkscape:pageopacity="0.0"
     inkscape:pageshadow="2"
     inkscape:zoom="2.8284271"
     inkscape:cx="434.25719"
     inkscape:cy="487.31811"
     inkscape:document-units="px"
     inkscape:current-layer="g4026"
     showgrid="false"
     inkscape:window-width="1307"
     inkscape:window-height="962"
     inkscape:window-x="229"
     inkscape:window-y="60"
     inkscape:window-maximized="0" />
  <metadata
     id="metadata7">
    <rdf:RDF>
      <cc:Work
         rdf:about="">
        <dc:format>image/svg+xml</dc:format>
        <dc:type
           rdf:resource="http://purl.org/dc/dcmitype/StillImage" />
        <dc:title></dc:title>
      </cc:Work>
    </rdf:RDF>
  </metadata>
  <g
     inkscape:groupmode="layer"
     id="layer2"
     inkscape:label="background"
     sodipodi:insensitive="true">
    <rect
       style="fill:#000000;fill-opacity:1;fill-rule:evenodd;stroke:none"
       id="rect2987"
       width="746.32904"
       height="1068.1476"
       x="8.4503746"
       y="5.7271881"
       ry="39.586582" />
  </g>
  <g
     inkscape:label="Layer 1"
     inkscape:groupmode="layer"
     id="layer1">
    <g
       id="g4016">
      <path
         sodipodi:nodetypes="ccscccccccccccccccccc"
         inkscape:connector-curvature="0"
         id="path2985"
         d="m 215.10583,325.33081 c 0.59881,0.5838 1.29613,1.36111 1.021,2.26305 0.2633,4.87986 0.11512,9.78426 0.71016,14.64367 0.32946,3.64091 1.2612,7.30096 3.27598,10.39106 1.03413,1.91936 1.36613,4.25346 0.65767,6.341 -1.23239,4.95998 -4.05761,9.28749 -6.21464,13.86526 -2.06278,4.14633 -4.28718,8.33907 -7.68837,11.55978 -3.68585,3.9371 -7.7595,7.68716 -10.20744,12.57534 -1.33796,2.59322 -1.88786,5.63607 -1.2443,8.50681 0.67565,4.08656 2.25943,8.11732 1.78782,12.31971 -0.42271,4.99662 -3.25198,9.33062 -4.38129,14.1497 -0.68022,2.98665 -0.84414,6.05731 -1.25138,9.08652 -0.57802,5.30327 -1.10804,10.62364 -1.1756,15.96162 -0.0321,6.97311 0.87352,13.9805 3.05133,20.61912 1.19588,3.99456 2.60604,7.98849 2.9297,12.17289 -0.17244,3.01639 -1.37342,6.01007 -0.71015,9.04429 0.85156,2.45673 3.15538,3.90524 5.11664,5.41192 4.28698,3.71206 7.23534,8.62078 10.68112,13.0593 1.81576,2.46966 3.70705,4.88915 5.78775,7.14275 1.36025,0.67426 3.0077,-0.6499 2.97428,-2.08325 1.16526,-4.90181 3.29673,-9.63153 3.43862,-14.73337 -0.36614,-3.45157 -1.36822,-6.97228 -0.51811,-10.43007 0.57693,-2.19548 1.99804,-4.06578 3.68455,-5.54124 1.48768,-1.4613 1.84234,-3.62829 1.85345,-5.62675 0.0562,-1.49852 -0.11856,-3.08636 0.62748,-4.45515 0.99998,-2.14504 3.02525,-3.54983 4.18028,-5.59306 1.30438,-2.10903 2.38202,-4.3577 3.82644,-6.37937 1.06452,-1.72123 1.29861,-3.76144 1.65063,-5.71015 0.47003,-2.35945 1.37726,-4.64428 2.80228,-6.59203 1.15869,-1.85315 2.29646,-4.0185 1.85414,-6.27355 -0.63814,-2.91272 -2.74378,-5.19754 -3.67409,-7.99947 -1.14517,-2.8705 -1.82752,-5.92427 -3.1931,-8.70445 -1.14064,-1.6755 -2.76382,-3.28714 -2.76393,-5.45224 -0.14598,-1.95352 0.4211,-4.10537 -0.69879,-5.86829 -1.37274,-2.0825 -3.77427,-3.48926 -4.44902,-6.0081 -1.37766,-3.83149 -1.81275,-8.06906 -4.13741,-11.50959 -1.45534,-2.04175 -3.68552,-3.66274 -4.28342,-6.21383 -0.71081,-3.79625 -0.18818,-7.70015 0.65338,-11.42969 1.65387,-7.18463 5.04454,-13.90727 6.01131,-21.25922 0.46543,-4.1567 -0.83328,-8.31969 -2.87663,-11.9038 -1.28115,-2.37219 -3.06641,-4.4103 -4.49272,-6.68812 -0.97944,-1.57693 -1.63219,-3.34847 -1.84318,-5.19607 -0.88821,-5.41195 -0.36533,-10.97866 -1.56776,-16.34628 -0.16959,-0.52503 -0.64587,-1.13155 -1.20468,-1.11665 z"
         style="fill:none;stroke:#ffffff;stroke-width:2.76455164;stroke-linecap:butt;stroke-linejoin:miter;stroke-miterlimit:4;stroke-opacity:1;stroke-dasharray:none" />
      <path
         transform="matrix(0.38611959,0,0,0.38611959,115.36219,260.86848)"
         style="fill:none;stroke:#ffffff;stroke-width:10;stroke-linecap:butt;stroke-linejoin:miter;stroke-miterlimit:4;stroke-opacity:1;stroke-dasharray:none;filter:url(#filter3817)"
         d="m 259.53125,167.25 c 2.9669,4.65664 1.84773,10.4062 2.08121,15.61756 0.60417,13.09094 0.18191,26.36445 3.1575,39.21951 0.7675,3.94663 2.10928,7.76079 4.14895,11.23355 2.64645,4.80117 5.4565,9.97766 4.9682,15.65333 -0.32204,7.02822 -3.83009,13.32126 -6.49538,19.67002 -5.45206,11.22288 -11.59281,22.09568 -17.05716,33.31168 -3.97464,7.51566 -9.109,14.36126 -14.87563,20.58738 -6.09252,7.09039 -11.02566,15.06944 -15.5279,23.2359 -3.79114,6.63223 -8.03285,13.30039 -9.48504,20.91158 -1.4074,11.42646 3.55807,22.75928 1.23619,34.14853 -1.84943,10.14701 -6.00803,19.65902 -8.90004,29.51975 -2.70654,8.5232 -4.46056,17.35424 -4.94228,26.29131 -2.01611,21.79724 -4.86994,43.6875 -3.32957,65.61244 0.85235,11.29125 3.2199,22.41457 6.43458,33.2565 3.32489,12.31642 7.42533,24.56247 8.56922,37.33 -0.23666,7.85726 -3.3473,15.7107 -1.3266,23.55721 2.44442,6.4562 8.58671,10.19601 13.62474,14.44697 9.95633,8.44893 16.65677,19.82616 24.53825,30.06828 5.69637,7.72174 11.38875,15.49655 18.05576,22.42225 2.91862,1.37613 5.90885,-1.84727 5.7465,-4.70407 1.77088,-12.76068 3.91379,-25.46687 5.72068,-38.22289 1.46452,-9.56141 2.71927,-19.18301 4.89895,-28.61075 1.22022,-4.41756 3.61216,-8.46547 6.97762,-11.58729 3.02205,-3.24066 5.03656,-7.51122 4.96875,-12 0.4247,-6.19223 -0.53581,-12.97606 2.96786,-18.47982 3.46566,-5.33831 9.04953,-9.10088 11.68221,-15.02155 3.11216,-5.84763 6.99349,-11.25656 10.05787,-17.12464 3.33901,-7.64032 2.79804,-16.50143 7.02229,-23.82839 3.46836,-5.65925 7.84661,-11.32135 8.24085,-18.21058 0.17018,-5.82038 -3.45668,-10.76053 -6.13208,-15.64238 -2.11474,-3.76652 -3.72088,-7.80153 -5.28269,-11.82373 -2.06716,-5.28546 -3.45357,-10.80223 -5.11881,-16.21266 -2.03534,-4.91048 -7.12592,-8.04449 -8.25,-13.40625 -0.9689,-3.34507 -0.54499,-6.83859 -0.375,-10.25 -0.17655,-5.21926 -2.58224,-10.34365 -6.6915,-13.60964 -4.1487,-4.22494 -7.49429,-9.45769 -8.53859,-15.36004 -2.65525,-9.11154 -4.41494,-18.96923 -10.6095,-26.49942 -3.93199,-4.61593 -9.06925,-8.94422 -10.08779,-15.25195 -1.88831,-13.19895 1.36606,-26.42084 5.0747,-39.01292 4.61252,-15.50953 11.41817,-30.56088 12.9807,-46.82042 0.61152,-12.30603 -4.28225,-24.25522 -11.14039,-34.25293 -4.94156,-6.97125 -10.88269,-13.83699 -12.40328,-22.51592 -2.90518,-14.57908 -1.0543,-29.68613 -4.3408,-44.2053 -0.43852,-1.27571 -0.89806,-2.92947 -2.24355,-3.44021 z"
         id="path3795"
         inkscape:connector-curvature="0"
         sodipodi:nodetypes="cccccccccccccccccccccccccccccccccccccsssssssssssssccccccc" />
      <path
         transform="matrix(0.40159089,0,0,0.40159089,111.34478,254.13628)"
         style="fill:none;stroke:#ffffff;stroke-width:6.88399982;stroke-linecap:butt;stroke-linejoin:miter;stroke-miterlimit:4;stroke-opacity:1;stroke-dasharray:none;filter:url(#filter3879)"
         d="m 236.5,76.78125 c 1.61144,26.08586 2.12806,52.23714 4.40625,78.28125 4.19222,12.25304 15.13515,20.17429 25.0648,27.62968 9.74091,6.8118 20.91662,11.97618 28.77895,21.15157 4.6689,9.06247 1.84451,19.57893 -1.25,28.65625 -6.01556,19.92189 -20.08248,37.8268 -39.30472,46.38125 -15.28387,8.08386 -32.91169,12.35045 -45.95178,24.22147 -10.67319,12.54403 -12.2707,30.88318 -6.99745,46.0861 3.54205,12.15101 5.77393,25.19122 2.63185,37.68212 -2.6684,22.02144 -11.27197,43.15214 -24.06311,61.21701 -7.40074,12.89888 -6.81071,28.51861 -4.28354,42.6933 4.76894,28.92025 19.87697,54.51872 29.95088,81.69489 6.5799,17.78719 12.19278,36.20844 22.67988,52.20554 9.85185,15.99387 21.85798,30.48914 33.52549,45.16207 4.24992,3.84041 11.64839,-0.4839 11.375,-5.90625 3.93045,-18.33054 4.78873,-37.12019 6.92543,-55.69098 3.85473,-15.08775 11.93447,-28.6226 16.81244,-43.35874 3.12301,-8.79393 6.84574,-17.4286 12.20603,-25.1124 6.4398,-9.97338 12.07965,-20.5065 15.8591,-31.79014 6.4106,-17.55778 8.08448,-36.40211 8.66575,-54.95399 0.59842,-11.58747 -1.91628,-23.07602 -5.98372,-33.87231 -6.63902,-16.20891 -5.61164,-34.16359 -10.31753,-50.86764 -3.08128,-13.56127 -4.22819,-27.98992 -11.21285,-40.29267 -4.52072,-6.45572 -13.2602,-9.29892 -20.75936,-6.97661 -4.41324,0.8954 -10.55362,-0.0444 -11.80958,-5.16221 -2.14728,-6.61942 2.43666,-12.81373 6.30054,-17.75397 7.90533,-10.31894 18.70136,-18.81792 23.28971,-31.36105 8.96373,-18.31861 14.13471,-39.24556 10.58654,-59.61979 -3.09733,-9.75393 -12.42321,-15.75631 -21.59375,-19.0625 -16.61353,-8.18791 -33.15235,-18.34325 -43.84477,-33.86739 -7.51469,-13.01552 -6.92192,-28.51859 -7.8323,-43.02484 -0.4741,-11.682481 -1.15308,-23.437043 -3.82293,-34.85777 l -0.0303,0.454199 -9.7e-4,0.01455 z"
         id="path3837"
         inkscape:connector-curvature="0"
         sodipodi:nodetypes="ccscccccccccccccccccc" />
      <path
         style="opacity:0.82819368999999998;fill:url(#radialGradient4009);fill-opacity:1;stroke:none;stroke-width:2.76455164000000009;stroke-linecap:butt;stroke-linejoin:miter;stroke-miterlimit:4;stroke-opacity:1;stroke-dasharray:none"
         d="m 215.10583,325.33081 c 0.59881,0.5838 1.29613,1.36111 1.021,2.26305 0.2633,4.87986 0.11512,9.78426 0.71016,14.64367 0.32946,3.64091 1.2612,7.30096 3.27598,10.39106 1.03413,1.91936 1.36613,4.25346 0.65767,6.341 -1.23239,4.95998 -4.05761,9.28749 -6.21464,13.86526 -2.06278,4.14633 -4.28718,8.33907 -7.68837,11.55978 -3.68585,3.9371 -7.7595,7.68716 -10.20744,12.57534 -1.33796,2.59322 -1.88786,5.63607 -1.2443,8.50681 0.67565,4.08656 2.25943,8.11732 1.78782,12.31971 -0.42271,4.99662 -3.25198,9.33062 -4.38129,14.1497 -0.68022,2.98665 -0.84414,6.05731 -1.25138,9.08652 -0.57802,5.30327 -1.10804,10.62364 -1.1756,15.96162 -0.0321,6.97311 0.87352,13.9805 3.05133,20.61912 1.19588,3.99456 2.60604,7.98849 2.9297,12.17289 -0.17244,3.01639 -1.37342,6.01007 -0.71015,9.04429 0.85156,2.45673 3.15538,3.90524 5.11664,5.41192 4.28698,3.71206 7.23534,8.62078 10.68112,13.0593 1.81576,2.46966 3.70705,4.88915 5.78775,7.14275 1.36025,0.67426 3.0077,-0.6499 2.97428,-2.08325 1.16526,-4.90181 3.29673,-9.63153 3.43862,-14.73337 -0.36614,-3.45157 -1.36822,-6.97228 -0.51811,-10.43007 0.57693,-2.19548 1.99804,-4.06578 3.68455,-5.54124 1.48768,-1.4613 1.84234,-3.62829 1.85345,-5.62675 0.0562,-1.49852 -0.11856,-3.08636 0.62748,-4.45515 0.99998,-2.14504 3.02525,-3.54983 4.18028,-5.59306 1.30438,-2.10903 2.38202,-4.3577 3.82644,-6.37937 1.06452,-1.72123 1.29861,-3.76144 1.65063,-5.71015 0.47003,-2.35945 1.37726,-4.64428 2.80228,-6.59203 1.15869,-1.85315 2.29646,-4.0185 1.85414,-6.27355 -0.63814,-2.91272 -2.74378,-5.19754 -3.67409,-7.99947 -1.14517,-2.8705 -1.82752,-5.92427 -3.1931,-8.70445 -1.14064,-1.6755 -2.76382,-3.28714 -2.76393,-5.45224 -0.14598,-1.95352 0.4211,-4.10537 -0.69879,-5.86829 -1.37274,-2.0825 -3.77427,-3.48926 -4.44902,-6.0081 -1.37766,-3.83149 -1.81275,-8.06906 -4.13741,-11.50959 -1.45534,-2.04175 -3.68552,-3.66274 -4.28342,-6.21383 -0.71081,-3.79625 -0.18818,-7.70015 0.65338,-11.42969 1.65387,-7.18463 5.04454,-13.90727 6.01131,-21.25922 0.46543,-4.1567 -0.83328,-8.31969 -2.87663,-11.9038 -1.28115,-2.37219 -3.06641,-4.4103 -4.49272,-6.68812 -0.97944,-1.57693 -1.63219,-3.34847 -1.84318,-5.19607 -0.88821,-5.41195 -0.36533,-10.97866 -1.56776,-16.34628 -0.16959,-0.52503 -0.64587,-1.13155 -1.20468,-1.11665 z"
         id="path4007"
         inkscape:connector-curvature="0"
         sodipodi:nodetypes="ccscccccccccccccccccc"
         inkscape:transform-center-x="-3.4018726"
         inkscape:transform-center-y="-14.17447" />
    </g>
    <g
       inkscape:export-ydpi="45"
       inkscape:export-xdpi="45"
       inkscape:export-filename="/home/kyle2/Development/Tools/GoDot_Engine/SuperSanta/GodotProject/RawAssets/Particles/smoke.png"
       id="g3959"
       transform="matrix(0.40159089,0,0,0.40159089,111.34478,254.13628)">
      <path
         style="fill:#ffffff;stroke:#000000;stroke-width:1.01334286px;stroke-linecap:butt;stroke-linejoin:miter;stroke-opacity:1;filter:url(#filter3847)"
         d="m 883.63371,1302.6027 c -91.81697,-73.308 5.39661,-154.1696 32.56705,-137.9292 21.94917,13.1196 58.17244,0.815 78.79126,-25.8617 57.32078,-74.1616 153.04508,-33.0692 143.92538,19.3964 54.7803,95.2312 42.8259,147.6766 -17.8594,225.2124 38.4715,59.746 -51.2222,106.8541 -87.1956,142.2395 -29.2516,28.7734 -126.59991,21.9427 -108.20668,-17.2412 -47.52432,16.842 -139.39389,-30.071 -90.34731,-59.2665 -15.16669,-62.1051 -82.20081,-69.2053 -17.85935,-127.1534 z"
         id="path3025"
         inkscape:connector-curvature="0"
         sodipodi:nodetypes="cssccscccc" />
      <path
         sodipodi:nodetypes="cssccscccc"
         inkscape:connector-curvature="0"
         id="path3851"
         d="m 804.13783,1273.0228 c -91.81697,-73.308 5.39661,-154.1696 32.56705,-137.9292 21.94917,13.1196 58.17244,0.815 78.79126,-25.8617 57.32078,-74.1616 153.04506,-33.0692 143.92536,19.3964 54.7803,95.2312 42.8259,147.6766 -17.8594,225.2124 38.4715,59.746 -51.22218,106.8541 -87.19558,142.2395 -29.2516,28.7734 -126.59991,21.9427 -108.20668,-17.2412 -47.52432,16.842 -139.39389,-30.071 -90.34731,-59.2665 -15.16669,-62.1051 -82.20081,-69.2053 -17.85935,-127.1534 z"
         style="fill:url(#linearGradient3999);fill-opacity:1;stroke:#000000;stroke-width:1.01334286px;stroke-linecap:butt;stroke-linejoin:miter;stroke-opacity:1;filter:url(#filter3847)"
         transform="matrix(0.71071483,-0.44022608,0.71843267,0.4354969,-553.92098,1262.983)" />
      <path
         style="opacity:0.82819369;fill:#333333;fill-opacity:1;fill-rule:evenodd;stroke:none;filter:url(#filter3877)"
         id="path3863"
         d="m 579.15338,761.23203 c -0.546,0.29932 -0.90279,0.78978 -1.26341,1.27666 -0.21313,0.24964 -0.38723,0.52374 -0.45466,0.84726 -0.0678,0.37122 -0.25397,0.70259 -0.34182,1.06978 -0.22585,0.41434 -0.32913,0.8722 -0.49544,1.30769 -0.15195,0.44398 -0.34642,0.86334 -0.55029,1.28513 -0.1765,0.48936 -0.41717,0.94901 -0.66437,1.40487 -0.22127,0.47395 -0.48412,0.93021 -0.76938,1.36883 -0.26711,0.4154 -0.52777,0.81895 -0.66869,1.29665 -0.18856,0.49765 -0.48502,0.9397 -0.70451,1.42247 -0.20523,0.45896 -0.37195,0.93535 -0.56803,1.39893 -0.17142,0.47723 -0.3679,0.93731 -0.58108,1.39716 -0.1202,0.41475 -0.32557,0.79372 -0.48004,1.19529 -0.14098,0.40588 -0.3055,0.81726 -0.50237,1.20066 -0.19846,0.42793 -0.48806,0.79923 -0.65741,1.24031 -0.15982,0.44241 -0.32698,0.88873 -0.5275,1.31495 -0.19849,0.28439 -0.29643,0.61536 -0.44308,0.92471 -0.16265,0.26534 -0.28842,0.55021 -0.33811,0.85792 -0.14791,0.2934 -0.27745,0.59724 -0.43432,0.88504 -0.17896,0.35102 -0.43152,0.65682 -0.67043,0.96872 -0.25161,0.28976 -0.38656,0.65128 -0.59778,0.96753 -0.16992,0.25571 -0.3306,0.50019 -0.54282,0.7249 -0.239,0.20175 -0.4601,0.4225 -0.69449,0.62931 -0.27101,0.16588 -0.54756,0.33214 -0.775,0.55707 -0.21261,0.26021 -0.49953,0.44518 -0.75808,0.65594 -0.29527,0.28723 -0.65924,0.48391 -1.0081,0.69752 -0.39298,0.16644 -0.77956,0.34609 -1.17298,0.51228 -0.41078,0.11668 -0.78433,0.32295 -1.18772,0.46011 -0.34591,0.10055 -0.70256,0.136 -1.06096,0.14751 -1.19411,0.0309 -2.38886,0.004 -3.58323,0.003 -0.29083,6.9e-4 -0.58165,-7.1e-4 -0.87247,-7e-5 -0.37079,0.0722 -0.60996,-0.10843 -0.93718,-0.22933 -0.30572,-0.12803 -0.6309,-0.14909 -0.95743,-0.16421 -0.25614,-0.13838 -0.52409,-0.32395 -0.81718,-0.36646 -0.27444,-0.0373 -0.55346,-0.0349 -0.83011,-0.0349 -0.92768,-10e-4 -2.20237,0 2.16642,0.001 0.0552,10e-6 -0.11043,-0.002 -0.16563,-5.9e-4 -0.18594,0.004 -0.12637,0.002 -0.32647,0.0653 -0.52249,0.14647 -0.98399,0.4348 -1.43133,0.73272 -0.5841,0.36557 -1.10246,0.8265 -1.59591,1.30475 -0.56134,0.47131 -1.02306,1.03637 -1.46255,1.61876 -0.38176,0.45093 -0.75278,0.9093 -1.12858,1.36463 -0.27079,0.38673 -0.65386,0.66916 -1.00213,0.98021 -0.31563,0.26565 -0.62476,0.5461 -0.96221,0.78371 -0.30547,0.21921 -0.5929,0.46472 -0.89403,0.69152 -0.24491,0.20238 -0.53912,0.30071 -0.84809,0.34808 -1.14351,0.0893 -2.29478,0.0322 -3.44127,0.0247 -0.28532,-10e-4 -0.57061,-0.005 -0.85594,-0.003 -0.33299,-9e-4 -0.66598,-0.003 -0.99897,-0.002 4.83582,-0.002 1.49116,0.0226 -0.38412,-0.0807 -0.17189,-0.009 -0.45803,-0.19283 -0.63338,-0.25054 -0.29804,-0.0586 -0.60249,-0.0625 -0.90512,-0.0662 -2.11858,-0.003 3.42309,0.004 1.56838,-9.6e-4 -0.39343,8.4e-4 -0.78687,0.003 -1.1803,0.001 -0.37435,0.0191 -0.7602,-0.0515 -1.12219,0.0632 -0.33347,0.16221 -0.69263,0.22943 -1.05089,0.30832 -0.34491,0.13825 -0.68634,0.27274 -1.04419,0.37387 -0.28779,0.14892 -0.57733,0.28538 -0.88562,0.38685 -0.25301,0.16024 -0.51174,0.29649 -0.79548,0.39359 -0.25058,0.16066 -0.50228,0.30404 -0.78921,0.38775 -0.23891,0.0474 -0.46008,0.0429 -0.67075,0.17247 -0.29644,0.14367 -0.52579,0.37366 -0.82353,0.51576 -0.36458,0.18336 -0.71977,0.3644 -1.11726,0.46531 -0.45431,0.0774 -0.87059,0.26584 -1.32204,0.35935 -0.5998,0.11681 -1.21362,0.11652 -1.82222,0.12396 -1.49641,0.0151 -2.99295,-9.5e-4 -4.48938,0.005 -0.57133,-0.0584 -1.02916,-0.38624 -1.53568,-0.61968 -0.36286,-0.2411 -0.73239,-0.43985 -1.09307,-0.67777 -0.2224,-0.21813 -0.54557,-0.20265 -0.78568,-0.36136 -0.31866,-0.15188 -0.58805,-0.35357 -0.899,-0.52058 -0.39796,-0.10775 -0.77778,-0.19857 -1.16569,-0.33592 -0.47231,-0.0851 -0.88983,-0.29191 -1.33532,-0.45543 -0.40701,-0.31237 -0.93431,-0.36929 -1.36959,-0.60838 -0.29075,-0.19843 -0.61651,-0.30821 -0.9615,-0.35513 -0.37729,0.0118 -0.69796,-0.19248 -1.05439,-0.29887 -0.36654,-0.0849 -0.74281,-0.10383 -1.11757,-0.1123 -2.39092,-0.003 2.75276,-0.006 1.67207,-1.1e-4 -0.38315,-0.0271 -0.73506,0.006 -1.09656,0.13375 -0.36082,0.0621 -0.6192,0.30793 -0.92554,0.48018 -0.14853,0.0771 -0.29388,0.15727 -0.46147,0.17776 -0.99576,0.0526 -2.12483,-0.0524 -3.01305,-0.0798 0,0 2.63412,-0.34135 2.63412,-0.34135 l 0,0 c -4.25512,0.0139 -3.18584,-0.004 -2.30158,0.0104 0.17085,0.005 0.32157,0.0102 0.48563,-0.0697 0.34726,-0.1303 0.60015,-0.4118 0.96213,-0.49984 0.36417,-0.13412 0.67937,-0.28589 1.07926,-0.22817 1.19637,-6.4e-4 2.39356,-0.0259 3.58942,0.0128 0.37649,0.0234 0.75311,0.0702 1.11395,0.18502 0.35612,0.12466 0.70084,0.24461 1.08153,0.26532 0.32805,0.0901 0.62279,0.25464 0.9161,0.42466 0.46315,0.18017 0.91682,0.37269 1.36353,0.59091 0.43324,0.17829 0.87505,0.30977 1.32399,0.44357 0.40469,0.12672 0.83575,0.17088 1.21055,0.38258 0.29678,0.17875 0.59943,0.34497 0.91199,0.49447 0.2906,0.079 0.52966,0.22124 0.76607,0.40813 0.34626,0.23766 0.72272,0.42828 1.0814,0.64561 0.46543,0.25658 0.91198,0.51477 1.46501,0.50726 0.40797,0.003 0.18226,0.002 0.62429,0.002 0.10788,-10e-6 0.43152,0 0.32364,5e-5 -4.11937,0.002 -2.41146,0.003 -1.50846,4.8e-4 0.59007,-0.006 1.18299,-0.006 1.76864,-0.0877 0.44883,-0.0715 0.84689,-0.24916 1.27694,-0.36061 0.39331,-0.0592 0.77545,-0.17473 1.09054,-0.42795 0.32356,-0.081 0.51354,-0.30042 0.7826,-0.45857 0.23926,-0.16801 0.38746,-0.30477 0.69758,-0.27458 0.29217,-0.0258 0.55935,-0.12472 0.78987,-0.30844 0.24211,-0.18085 0.57375,-0.17485 0.79958,-0.39772 0.27152,-0.19306 0.63799,-0.18734 0.90613,-0.4047 0.32173,-0.182 0.71939,-0.18777 1.0432,-0.38467 0.32329,-0.16669 0.71094,-0.12008 1.03783,-0.30069 0.37794,-0.18678 0.74024,-0.18363 1.15864,-0.1622 0.39171,-0.002 0.78343,-4.2e-4 1.17514,-0.002 1.22349,-0.01 2.4474,-0.0191 3.67066,0.004 0.31381,0.0138 0.63159,0.0384 0.92818,0.15011 0.14931,0.0614 0.29848,0.12609 0.45035,0.18087 0.0483,0.0174 0.19808,0.0456 0.14674,0.047 -0.72678,0.0197 -6.29094,0.0164 0.383,0.0139 0.34171,10e-4 0.68341,-10e-4 1.02512,-10e-4 0.28564,0.003 0.5713,4.2e-4 0.85693,0.004 1.15121,0.007 -3.94652,0.003 -1.85151,2.3e-4 0.30006,-0.0138 0.60862,-0.041 0.86696,-0.2098 0.3243,-0.20681 0.60116,-0.46034 0.88977,-0.71279 0.36868,-0.16924 0.63878,-0.49088 0.97347,-0.71554 0.31702,-0.34429 0.75669,-0.56533 1.04029,-0.94803 0.3695,-0.4728 0.77391,-0.911 1.17751,-1.35336 0.44341,-0.58954 0.90655,-1.17927 1.47832,-1.65088 0.46884,-0.50121 0.98682,-0.97438 1.56,-1.35125 0.41246,-0.32106 0.86775,-0.63234 1.3587,-0.80978 1.13173,-0.50294 2.35585,-0.1524 3.59333,-0.16078 0.28575,0.009 0.57797,0.0151 0.85146,0.10729 0.25661,0.11304 0.50028,0.28328 0.78431,0.31221 0.33099,0.035 0.65111,0.10092 0.95508,0.24229 0.31525,0.12466 0.61311,0.15653 0.95325,0.12898 0.28547,10e-4 0.57096,3e-4 0.85642,0.003 2.09729,0.0138 -3.3652,-0.008 -1.6631,0.003 0.3558,-0.004 0.71224,-0.011 1.06323,-0.077 0.41912,-0.10354 0.78717,-0.30513 1.18855,-0.43938 0.40331,-0.13603 0.7577,-0.36214 1.1694,-0.47158 0.34788,-0.18323 0.67259,-0.39568 0.98724,-0.62803 0.21607,-0.25605 0.52721,-0.40427 0.74835,-0.65208 0.21235,-0.22952 0.46701,-0.48502 0.75589,-0.59821 0.27038,-0.18159 0.45555,-0.42003 0.72494,-0.59736 0.23303,-0.19764 0.3391,-0.45714 0.52737,-0.68683 0.26121,-0.29032 0.38116,-0.66707 0.63019,-0.97295 0.24566,-0.27738 0.4364,-0.60873 0.64884,-0.91426 0.13188,-0.2754 0.22782,-0.55946 0.39484,-0.81694 0.089,-0.32839 0.19238,-0.63696 0.3623,-0.93442 0.1882,-0.28067 0.22682,-0.66712 0.48271,-0.91754 0.2345,-0.39314 0.37589,-0.86224 0.53844,-1.28776 0.18582,-0.44216 0.41054,-0.84942 0.65086,-1.26167 0.18396,-0.38013 0.34581,-0.77308 0.49329,-1.16764 0.13345,-0.41946 0.36854,-0.79469 0.49537,-1.21572 0.19614,-0.46438 0.4412,-0.90837 0.60993,-1.38576 0.17352,-0.47322 0.32728,-0.95251 0.54596,-1.40861 0.20181,-0.48226 0.53289,-0.89566 0.68872,-1.39877 0.17405,-0.48218 0.3892,-0.94045 0.6904,-1.35879 0.26799,-0.44425 0.56504,-0.86975 0.78469,-1.34348 0.21412,-0.46282 0.49134,-0.90394 0.6307,-1.39606 0.18052,-0.42491 0.41187,-0.82818 0.56442,-1.2664 0.15398,-0.42836 0.22856,-0.88085 0.45258,-1.28263 0.10003,-0.35587 0.25738,-0.70031 0.31133,-1.06077 0.0857,-0.367 0.24631,-0.70368 0.5294,-0.96433 0.40073,-0.46371 0.76515,-0.96491 1.25999,-1.34315 0,0 2.60207,0.24198 2.60207,0.24198 z"
         inkscape:connector-curvature="0"
         transform="matrix(2.4900963,0,0,2.4900963,-277.25923,-632.82382)" />
      <path
         style="opacity:0.82819369;fill:#ffffff;fill-opacity:1;fill-rule:evenodd;stroke:none;filter:url(#filter3903)"
         id="path3885"
         d="m 527.80454,709.44794 c -0.45824,0.55387 -0.86164,1.15182 -1.29537,1.72593 -0.3436,0.48713 -0.67269,0.98637 -1.04843,1.45006 -0.38995,0.45243 -0.77234,0.9125 -1.16582,1.36199 -0.40857,0.45578 -0.77868,0.94431 -1.18229,1.40453 -0.42687,0.52501 -0.86198,1.03777 -1.33119,1.52573 -0.54364,0.5932 -1.11497,1.16126 -1.68243,1.73169 -0.57171,0.57649 -1.15259,1.14003 -1.74461,1.69506 -0.51319,0.48693 -1.04059,0.95733 -1.53451,1.46423 -0.47557,0.45979 -0.96172,0.90963 -1.38795,1.41663 -0.38839,0.46593 -0.82435,0.89057 -1.21124,1.35707 -0.37776,0.4489 -0.75263,0.89929 -1.16825,1.31405 -0.33095,0.29496 -0.67541,0.57618 -0.98914,0.88969 -0.27562,0.25266 -0.54984,0.50913 -0.80394,0.78387 -0.29567,0.28012 -0.59923,0.55279 -0.85445,0.87149 -0.25649,0.38526 -0.66994,0.57655 -1.05219,0.8117 -0.34289,0.26607 -0.70485,0.50472 -1.06634,0.74489 -0.39118,0.20676 -0.78872,0.4075 -1.15691,0.65354 -0.33354,0.25353 -0.65614,0.51074 -1.02343,0.71443 -0.28328,0.20606 -0.5763,0.38557 -0.91259,0.48789 -1.1207,0.17847 -2.49246,0.55235 -3.41447,-0.18684 -0.15418,-0.25931 -0.17387,-0.53887 -0.20557,-0.82962 -0.0697,-0.14485 -0.1795,-0.50496 -0.37254,-0.48873 -0.26962,0.0155 -0.40915,-0.11339 -0.60908,-0.2791 -0.20392,-0.0887 -0.40786,-0.11717 -0.62597,-0.12566 -1.02405,-0.007 -2.77944,-0.003 1.8221,-8.6e-4 -0.37411,-9.4e-4 -0.74822,-10e-4 -1.12233,-0.003 -0.58911,-0.0604 -1.14883,0.0979 -1.71981,0.21021 -0.57658,0.12408 -1.16706,0.15328 -1.75472,0.17374 -0.50313,-0.0111 -0.98402,0.0141 -1.468,0.15549 -0.40559,0.1416 -0.84127,0.15582 -1.24362,0.30221 -0.49418,0.16375 -0.99478,0.30993 -1.49357,0.46082 -0.64511,0.1543 -1.27038,0.38714 -1.89206,0.61709 -0.60357,0.29248 -1.20417,0.59106 -1.81137,0.8758 -0.63831,0.27308 -1.24884,0.6015 -1.87258,0.90483 -0.52309,0.30809 -1.06295,0.59233 -1.56869,0.92869 -0.35264,0.29936 -0.78996,0.50296 -1.12022,0.82725 -0.68703,0.74129 -2.9989,0.84976 -3.25151,-0.008 -0.0334,-0.28147 -0.15404,-0.25157 -0.40036,-0.28623 -0.9751,-0.0483 -2.96625,-0.0507 1.29577,-10e-4 -0.72375,0.13155 -1.41884,0.37936 -2.1094,0.6267 -0.93255,0.38414 -1.82215,0.86885 -2.71342,1.33998 -0.92014,0.54796 -1.8748,1.03017 -2.82986,1.51386 -0.83726,0.40768 -1.58398,0.94197 -2.32459,1.49885 -0.68031,0.42681 -1.27459,0.9667 -1.92638,1.43296 -0.59055,0.47866 -1.23079,0.8907 -1.82894,1.35894 -0.64944,0.59656 -1.34236,1.14081 -2.02044,1.7038 -0.73545,0.66587 -1.57037,1.20794 -2.28137,1.90045 -0.67266,0.67761 -1.25063,1.44381 -1.77972,2.23684 -0.46759,0.64227 -0.93395,1.27299 -1.21462,2.02066 -0.28297,0.6365 -0.47264,1.2986 -0.57177,1.98648 -0.0546,0.59793 -0.075,1.20248 -0.0333,1.80203 -0.006,0.37444 0.0341,0.74893 0.0258,1.12294 0.007,0.33564 -0.0132,0.67055 0.006,1.00611 0.0976,0.28242 0.21815,0.55517 0.43035,0.76706 0.13199,0.0821 0.17662,0.22821 0.24299,0.36017 0,0 -2.67878,0.12915 -2.67878,0.12915 l 0,0 c -0.0614,-0.11207 -0.13688,-0.2058 -0.22205,-0.30154 -0.21033,-0.28638 -0.3607,-0.60784 -0.44229,-0.95475 0.0193,-0.33526 -8.7e-4,-0.66978 0.004,-1.00514 -0.0113,-0.37453 0.0228,-0.74998 0.0167,-1.12493 0.0464,-0.61116 0.0371,-1.22491 0.11019,-1.83446 0.0867,-0.71893 0.28752,-1.38545 0.59568,-2.04189 0.28085,-0.77782 0.73706,-1.45093 1.27545,-2.07693 0.54034,-0.80447 1.1177,-1.58928 1.79302,-2.28672 0.71176,-0.69919 1.53626,-1.25561 2.27983,-1.91723 0.65339,-0.5739 1.3438,-1.1031 1.95948,-1.71821 0.59573,-0.47842 1.23429,-0.90158 1.83377,-1.37592 0.67233,-0.44202 1.24636,-1.0143 1.94495,-1.41923 0.75744,-0.57996 1.54415,-1.10166 2.39516,-1.53611 0.95584,-0.48548 1.92656,-0.93903 2.83545,-1.5112 0.891,-0.45187 1.74961,-0.97001 2.66208,-1.37838 0.67046,-0.24359 1.32328,-0.53912 2.02328,-0.68734 1.20791,-0.0282 2.64299,-0.19486 3.90694,0.0115 0.25849,0.0957 0.36179,0.23843 0.44662,0.49112 0.0598,-0.0124 0.11433,0.002 0.1749,-0.0129 -0.85004,0.0131 -1.70008,0.0261 -2.55013,0.0392 -0.0462,9.8e-4 0.0938,0.0244 0.13826,0.0118 0.0533,-0.0152 0.0929,-0.0605 0.13934,-0.0907 0.35485,-0.35626 0.81603,-0.53505 1.18885,-0.8761 0.53012,-0.3327 1.07596,-0.63602 1.61678,-0.94935 0.60753,-0.32757 1.24266,-0.60324 1.8546,-0.92261 0.63109,-0.25636 1.23935,-0.57269 1.84307,-0.88652 0.6127,-0.22853 1.21878,-0.4948 1.85679,-0.64004 0.48241,-0.13493 0.93752,-0.33346 1.42718,-0.4425 0.41071,-0.18242 0.82392,-0.23647 1.26414,-0.32565 0.50359,-0.14971 0.97846,-0.27635 1.51165,-0.21734 0.5916,-0.0117 1.18563,-0.0262 1.76978,-0.13018 0.55715,-0.10039 1.09304,-0.3117 1.6659,-0.26682 0.35252,-0.002 0.70502,-0.003 1.05752,-0.007 1.15434,1.8e-4 2.33615,-0.0459 3.49761,0.0271 0.23341,0.0403 0.45105,0.13322 0.64351,0.27251 0.19356,0.13497 0.42485,0.10896 0.61508,0.25161 0.17928,0.21408 0.28042,0.48424 0.37425,0.74501 0.004,0.20537 0.0188,0.45668 0.19464,0.59044 0.0622,0.037 0.26996,0.0889 0.19756,0.0904 -4.44664,0.09 -3.05556,0.0479 -2.10659,-0.01 0.35146,-0.0363 0.66564,-0.17909 0.94774,-0.39028 0.3414,-0.23765 0.71927,-0.41345 1.02417,-0.70504 0.36495,-0.24651 0.74102,-0.49228 1.14276,-0.66611 0.38669,-0.21795 0.73635,-0.48182 1.10578,-0.72754 0.32951,-0.25098 0.71979,-0.41063 0.99679,-0.72141 0.21979,-0.35307 0.57701,-0.59777 0.84055,-0.91956 0.27848,-0.25724 0.53987,-0.53174 0.81307,-0.79448 0.34845,-0.29409 0.68672,-0.59828 1.0387,-0.88824 0.4574,-0.36889 0.81055,-0.82979 1.20074,-1.2651 0.36105,-0.49494 0.82492,-0.89977 1.2146,-1.37211 0.45157,-0.49492 0.89788,-0.98928 1.41081,-1.42246 0.47718,-0.53768 1.04249,-0.97385 1.54934,-1.4812 0.59643,-0.55283 1.22527,-1.07129 1.76635,-1.68387 0.56619,-0.56833 1.13107,-1.13703 1.68065,-1.72177 0.4368,-0.49888 0.85967,-1.00929 1.26712,-1.53235 0.43204,-0.43483 0.76151,-0.95381 1.19029,-1.39272 0.38124,-0.45846 0.76136,-0.9166 1.15085,-1.36521 0.41034,-0.43935 0.69581,-0.96854 1.07834,-1.43135 0.43028,-0.56244 0.89375,-1.09835 1.2277,-1.72861 0,0 2.60789,0.16805 2.60789,0.16805 z"
         inkscape:connector-curvature="0"
         transform="matrix(2.4900963,0,0,2.4900963,-277.25923,-632.82382)" />
      <path
         style="opacity:0.82819369;fill:#ffffff;fill-opacity:1;fill-rule:evenodd;stroke:none;filter:url(#filter3917)"
         id="path3907"
         d="m 474.32065,729.54339 c -0.63731,-0.0417 -1.2565,0.13256 -1.87434,0.2615 -0.38057,0.0541 -0.72118,0.23262 -1.07225,0.37806 -0.31183,0.13333 -0.5812,0.33142 -0.89671,0.46137 -0.29168,0.18701 -0.63044,0.27958 -0.91478,0.47594 -0.31212,0.20104 -0.60346,0.43154 -0.87701,0.68243 -0.38148,0.28254 -0.75481,0.57444 -1.10433,0.89593 -0.45509,0.3851 -0.90988,0.77023 -1.36045,1.16094 -0.4246,0.4116 -0.88326,0.78731 -1.34539,1.15595 -0.32115,0.32145 -0.70539,0.56902 -1.02349,0.89221 -0.34247,0.36919 -0.68946,0.73425 -1.03191,1.10353 -0.32037,0.40961 -0.65086,0.8119 -1.01015,1.18817 -0.33292,0.39104 -0.65643,0.78976 -0.99102,1.17981 -0.27096,0.38255 -0.57558,0.73866 -0.86124,1.10939 -0.31896,0.39471 -0.62548,0.80235 -0.89671,1.23176 -0.20893,0.38544 -0.43573,0.75022 -0.57682,1.16765 -0.15047,0.34038 -0.34636,0.65051 -0.42839,1.01686 -0.06,0.30778 -0.0729,0.62705 -0.0572,0.94017 -0.0302,0.3067 0.0332,0.62105 -0.0427,0.91964 -0.0495,0.11375 -0.12986,0.20329 -0.19106,0.31021 0,0 -2.68503,-0.13625 -2.68503,-0.13625 l 0,0 c 0.0538,-0.0995 0.0849,-0.22467 0.18875,-0.28185 0.17019,-0.18334 0.008,-0.58233 0.0472,-0.81505 0.0244,-0.33428 0.0288,-0.66825 0.086,-0.99987 0.0966,-0.37425 0.23147,-0.71343 0.4566,-1.03108 0.12227,-0.44899 0.37404,-0.82765 0.59992,-1.23013 0.24967,-0.44454 0.58563,-0.84749 0.89839,-1.24839 0.24897,-0.40801 0.60136,-0.73717 0.87399,-1.13013 0.31793,-0.41108 0.66909,-0.79706 1.00183,-1.19488 0.34276,-0.38701 0.68619,-0.77253 1.00239,-1.18203 0.31666,-0.3835 0.67425,-0.73154 1.00102,-1.10482 0.29615,-0.38049 0.72976,-0.6 1.05964,-0.94852 0.49409,-0.3289 0.93062,-0.72649 1.36693,-1.12669 0.42678,-0.40231 0.88501,-0.76848 1.33009,-1.15006 0.3152,-0.34218 0.68098,-0.65064 1.06314,-0.91118 0.27585,-0.25189 0.54723,-0.51452 0.85993,-0.72023 0.0919,-0.0635 0.16148,-0.15692 0.25648,-0.21568 0.2025,-0.12525 0.49889,-0.10434 0.67592,-0.28899 0.27967,-0.18807 0.62919,-0.25504 0.8801,-0.50169 0.39165,-0.12339 0.74937,-0.33395 1.14836,-0.41128 0.62114,-0.10257 1.23439,-0.28857 1.86315,-0.31153 0,0 2.58113,0.40881 2.58113,0.40881 z"
         inkscape:connector-curvature="0"
         transform="matrix(2.4900963,0,0,2.4900963,-277.25923,-632.82382)" />
      <path
         style="opacity:0.82819369;fill:#000000;fill-opacity:1;fill-rule:evenodd;stroke:none;filter:url(#filter3955)"
         id="path3925"
         d="m 478.93293,840.98169 c 0.69581,-0.27545 1.4263,-0.44941 2.12339,-0.7189 0.50507,-0.17016 1.0033,-0.351 1.50259,-0.53666 0.44424,-0.13728 0.88995,-0.24116 1.32505,-0.40702 0.47805,-0.12524 0.95051,-0.24664 1.42101,-0.39874 0.4917,-0.13947 0.98895,-0.22045 1.47221,-0.39213 0.4377,-0.2051 0.85987,-0.42351 1.31905,-0.57999 0.46408,-0.15963 0.87775,-0.42442 1.32069,-0.62863 0.40947,-0.14574 0.78507,-0.36342 1.19827,-0.49888 0.35738,-0.0596 0.67839,-0.20323 1.01025,-0.34 0.32313,-0.11296 0.61276,-0.29461 0.92342,-0.43686 0.30799,-0.0919 0.60638,-0.15488 0.89963,-0.28843 0.36516,-0.10994 0.61361,-0.37274 0.87816,-0.62779 0.2725,-0.29286 0.60268,-0.51697 0.91162,-0.76624 0.20676,-0.19752 0.46139,-0.33256 0.73271,-0.41628 0.25071,-0.12246 0.41876,-0.3454 0.61166,-0.53847 0.18628,-0.21654 0.39938,-0.40753 0.58912,-0.62073 0.21692,-0.23939 0.47847,-0.44355 0.662,-0.71032 0.14241,-0.21556 0.38622,-0.32309 0.50119,-0.55423 0.17215,-0.1821 0.29909,-0.40059 0.46175,-0.59111 0.20596,-0.19761 0.3038,-0.46451 0.48515,-0.67906 0.16728,-0.19355 0.26297,-0.41204 0.47959,-0.56172 0.26689,-0.17215 0.40163,-0.45528 0.6005,-0.68741 0.19479,-0.17354 0.33666,-0.37615 0.5657,-0.51071 0.16515,-0.10624 0.35008,-0.1217 0.541,-0.1225 0.28565,-0.13197 0.57042,-0.25621 0.87756,-0.32775 0.42292,-0.0642 0.85327,-0.063 1.28022,-0.065 1.23481,-0.003 2.46989,-0.0112 3.70472,10e-4 0.91723,-0.0179 2.29264,0.12982 -1.95324,-0.0182 -0.26604,-0.009 0.37863,-0.10621 0.64221,-0.18431 0.44396,-0.13003 0.90802,-0.13377 1.3617,-0.20046 0.40134,-0.1379 0.82415,-0.2232 1.21114,-0.39895 0.39254,-0.17194 0.79706,-0.30005 1.18444,-0.48465 0.40635,-0.1329 0.79126,-0.31191 1.18488,-0.47676 0.4195,-0.16868 0.80667,-0.40555 1.18916,-0.64459 0.41677,-0.1779 0.83492,-0.33575 1.23237,-0.55836 0.38095,-0.21657 0.72827,-0.47733 1.07695,-0.74044 0.35415,-0.29239 0.72381,-0.56474 1.07759,-0.85854 0.43394,-0.33704 0.75801,-0.76082 1.06919,-1.20756 0.29443,-0.45297 0.54767,-0.92765 0.81595,-1.39641 0.1828,-0.26441 0.2683,-0.56136 0.34457,-0.86749 0.0711,-0.24249 0.26066,-0.41051 0.34187,-0.64618 0.0743,-0.22968 0.0243,-0.44823 0.18001,-0.64718 0.14139,-0.0894 0.22472,-0.2579 0.25764,-0.41805 -0.004,-0.12529 0.0205,-0.25174 0.0242,-0.37884 0.004,-0.26143 0.0232,-0.52167 0.0103,-0.78361 -0.0231,-0.35842 0.0417,-0.67631 0.19192,-1.00069 0.10152,-0.24037 0.16516,-0.48699 0.17709,-0.74734 0.0232,-0.20526 0.02,-0.41353 0.02,-0.62002 -0.0364,-0.9463 -2.58045,-0.54178 2.59088,0.0664 0.0577,0.007 -0.0967,0.0645 -0.14505,0.0968 -0.26542,0.17745 -0.14097,0.0868 -0.38785,0.28273 0,0 -2.60283,-0.2318 -2.60283,-0.2318 l 0,0 c 0.71839,-0.59817 3.28807,-2.51877 3.24064,-0.21474 9.8e-4,0.21917 -3.2e-4,0.43634 -0.0112,0.65591 -0.0587,0.27838 -0.0953,0.56132 -0.22945,0.81624 -0.11326,0.30756 -0.2366,0.55137 -0.16503,0.89594 -0.0119,0.26235 0.009,0.52276 0.0149,0.78449 0.003,0.12949 0.0463,0.31552 -0.0303,0.42588 -0.037,0.23922 -0.11656,0.42108 -0.2546,0.62393 -0.23116,0.0365 -0.12421,0.25476 -0.18281,0.49138 -0.0922,0.22723 -0.1796,0.42261 -0.35683,0.59594 -0.043,0.34562 -0.24341,0.68089 -0.43446,0.96374 -0.30143,0.45502 -0.51807,0.95708 -0.832,1.40442 -0.30209,0.47497 -0.63186,0.91561 -1.05559,1.28804 -0.35829,0.2792 -0.67814,0.60084 -1.05421,0.85588 -0.3242,0.29985 -0.69885,0.54195 -1.0771,0.76744 -0.36063,0.28337 -0.80436,0.43673 -1.23663,0.57483 -0.40292,0.22105 -0.77298,0.48092 -1.18307,0.69002 -0.40654,0.13738 -0.76521,0.36779 -1.18637,0.45885 -0.39617,0.17261 -0.76668,0.36421 -1.18585,0.47829 -0.39326,0.20153 -0.79997,0.30585 -1.21835,0.44817 -0.43363,0.16422 -0.9188,0.0725 -1.36819,0.19803 -0.18978,0.0477 -0.44723,0.1876 -0.63795,0.19702 -1.07978,0.0534 -2.16251,0.0798 -3.24408,0.0751 -0.19154,10e-4 -0.38297,10e-4 -0.57449,6.1e-4 -0.0607,-1.8e-4 -0.24277,2.4e-4 -0.18208,1.9e-4 2.52216,-0.002 3.259,0.003 2.23523,-0.003 -0.40889,10e-4 -0.81832,-0.002 -1.22648,0.0266 -0.29817,0.0382 -0.60602,0.0974 -0.85641,0.27375 -0.1679,0.14531 -0.32123,0.0633 -0.52425,0.11706 -0.26542,0.0817 -0.42212,0.19576 -0.57118,0.44067 -0.27841,0.10919 -0.33268,0.50757 -0.59888,0.64684 -0.1415,0.20944 -0.41833,0.28339 -0.4835,0.57744 -0.23592,0.17524 -0.27296,0.44324 -0.48724,0.6432 -0.1304,0.17794 -0.25674,0.42556 -0.43424,0.53724 -0.1367,0.26649 -0.28068,0.43313 -0.54287,0.58506 -0.1881,0.28574 -0.42604,0.51842 -0.66103,0.75889 -0.32129,0.29257 0.13812,-0.1455 -0.17962,0.23466 -0.12169,0.1456 -0.34713,0.19434 -0.39468,0.40757 -0.23888,0.18529 -0.38015,0.41941 -0.62156,0.59278 -0.2185,0.18991 -0.55365,0.15014 -0.76341,0.37071 -0.30924,0.24658 -0.65912,0.45203 -0.91328,0.75691 -0.30145,0.2271 -0.49873,0.59948 -0.87809,0.71058 -0.30297,0.11654 -0.535,0.3135 -0.88115,0.29714 -0.3373,0.11355 -0.62938,0.28643 -0.94194,0.43925 -0.35412,0.11935 -0.6553,0.33981 -1.03544,0.36075 -0.43275,0.0944 -0.79863,0.31505 -1.20759,0.46637 -0.46986,0.16512 -0.86558,0.46647 -1.33663,0.62763 -0.43323,0.20382 -0.91635,0.29967 -1.30972,0.59471 -0.49365,0.16443 -0.97218,0.32014 -1.48808,0.39808 -0.46841,0.13882 -0.9051,0.33479 -1.39701,0.38928 -0.44922,0.1547 -0.87155,0.34203 -1.34795,0.40731 -0.52066,0.16992 -1.00827,0.4097 -1.54927,0.52431 -0.6864,0.25483 -1.40192,0.41565 -2.06891,0.72066 0,0 -2.58301,-0.30892 -2.58301,-0.30892 z"
         inkscape:connector-curvature="0"
         transform="matrix(2.4900963,0,0,2.4900963,-277.25923,-632.82382)" />
    </g>
    <g
       id="g3945"
       transform="translate(83.354841,-226.28867)"
       inkscape:export-filename="/home/kyle2/Development/Tools/GoDot_Engine/SuperSanta/GodotProject/RawAssets/Particles/flame2.png"
       inkscape:export-xdpi="90"
       inkscape:export-ydpi="90">
      <g
         id="g3922">
        <path
           style="fill:none;stroke:#ffffff;stroke-width:3;stroke-linecap:butt;stroke-linejoin:miter;stroke-miterlimit:4;stroke-opacity:1;stroke-dasharray:none"
           d="m 443.6875,348.21875 c -1.9515,3.51439 -3.43986,7.25821 -5.25,10.84375 -0.77549,0.66842 -2.15067,1.03817 -2.11553,2.27525 -0.47729,4.16741 -3.13767,7.73702 -6.27652,10.3648 -1.27193,1.08025 -2.5748,2.15848 -3.98295,3.04745 -0.83476,0.29821 -1.73156,-0.9108 -2.5,-0.15625 -1.52757,2.98691 -3.84563,5.4708 -6.13021,7.88274 -1.00437,1.2707 -2.0838,2.47604 -3.05729,3.77351 -1.4571,1.2987 -2.21012,3.12923 -3.375,4.65625 -0.60118,0.77641 -1.51704,0.45946 -2.3125,0.375 -1.17534,0.20619 -1.11563,1.45065 -1.15386,2.36064 -0.0425,1.3095 -1.2605,2.00871 -1.8251,3.07191 -1.39951,2.18882 -2.76701,4.39908 -4.13983,6.60294 -2.00716,3.77534 -2.88491,8.00445 -4.31668,12.00676 -3.24675,10.11657 -7.0035,20.05815 -10.67687,30.02426 -3.0533,8.44642 -5.25921,17.34812 -5.08814,26.38324 0.11697,8.02182 2.18798,16.05889 6.31327,22.96638 2.9291,4.92236 6.78224,9.24561 11.04346,13.05262 5.83088,5.08618 12.45575,9.18384 19.32259,12.71367 5.92014,3.0687 12.06016,5.70553 18.31999,7.99758 9.03083,3.29506 18.27341,5.97172 27.55239,8.46678 2.02904,0.50108 4.05047,1.12966 6.11243,1.43481 2.45638,-0.16488 4.14817,-2.19482 5.8176,-3.76909 9.41404,-9.38719 18.72572,-18.91689 27.06164,-29.29042 3.6993,-4.58364 7.60969,-9.0053 11.87238,-13.07333 1.72163,-1.7915 3.39128,-4.10052 3.04579,-6.72419 -0.30243,-3.16805 -2.85208,-5.62293 -5.61866,-6.88938 -3.98633,-2.03663 -8.02034,-3.97731 -12.04865,-5.92893 -1.07212,-0.053 -1.37184,-1.60734 -0.41274,-2.07358 0.66145,-0.41797 1.36405,-1.45654 0.60024,-2.11392 -1.05921,-0.86075 -2.3518,0.093 -3.52479,0.0566 -1.1022,0.0806 -2.25351,0.4613 -3.32622,0.36162 -2.7101,-1.1981 -3.72719,-4.86446 -2.36774,-7.41825 1.43848,-4.1483 3.62752,-8.19434 3.65625,-12.6875 -0.61706,-3.62091 -3.10105,-6.48443 -5.04258,-9.47527 -2.62565,-3.64202 -5.14242,-7.52294 -6.11996,-11.97014 -1.39164,-4.87376 -2.73238,-9.78647 -4.71246,-14.46084 -0.6308,-1.25561 -1.79097,-2.08947 -2.79867,-2.99785 -1.8284,-2.18708 -2.34044,-5.07873 -3.26765,-7.69825 -1.56484,-5.32798 -2.28122,-10.86624 -3.90243,-16.1789 -1.59894,-3.77855 -4.61659,-6.7827 -8.01874,-8.98794 -2.0923,-1.51579 -3.86956,-3.39122 -5.62611,-5.27055 -3.68439,-3.82429 -7.39099,-8.00211 -8.8239,-13.24151 -0.84027,-3.02543 -1.25927,-6.15321 -1.75,-9.24531 0.16319,-0.75094 -0.46917,-2.60192 -1.15625,-1.06719 z"
           id="path3896"
           inkscape:connector-curvature="0"
           sodipodi:nodetypes="cssssssssssssssssssssssssssssssscsssssssssssssssssssssssssssssssssssssssssssssssssssssssssssssssssssssssssssssssssssssssssssssssccccccccccccccccccccccccccccccccc" />
        <path
           sodipodi:nodetypes="cssssssssssssssssssssssssssssssscsssssssssssssssssssssssssssssssssssssssssssssssssssssssssssssssssssssssssssssssssssssssssssssssccccccccccccccccccccccccccccccccc"
           inkscape:connector-curvature="0"
           id="path3898"
           d="m 445.03125,307.09375 c -1.16014,1.17787 -1.66512,2.8844 -2.09289,4.46345 -1.16135,4.31938 -2.07591,8.70637 -2.90681,13.10082 -1.45736,8.27704 -1.77158,16.69405 -2.548,25.04822 -0.35046,3.02461 -0.84947,6.08459 -2.17105,8.85626 -1.42281,1.83896 -3.93058,2.04764 -6.00821,2.66149 -2.64912,0.65993 -5.25748,1.72656 -7.32587,3.54337 -1.31596,0.88024 -2.6009,1.81515 -4.00967,2.54514 -0.96245,0.01 -2.03367,-0.75002 -2,-1.78125 -0.3744,-1.17543 -2.39355,-0.71529 -2.3125,0.46875 -1.25671,3.9899 -4.59458,6.73005 -7,10 -0.73391,2.70515 -2.25046,5.41296 -1.66279,8.29256 0.56382,2.32356 1.32187,4.88305 0.22013,7.1741 -0.58784,1.65089 -1.30551,3.48455 -2.88476,4.41003 -1.29717,0.55195 -3.14909,0.50438 -3.78,2.00824 -1.01568,2.15116 -1.73433,4.42699 -2.77346,6.56881 -0.69596,1.63001 -1.39191,3.26001 -2.08787,4.89001 -0.12359,1.46176 1.84632,2.20332 1.5,3.71875 -0.65471,3.29019 -3.14295,5.7238 -4.6875,8.59375 -3.58166,5.08784 -7.49959,10.05567 -9.84375,15.875 -0.95488,3.18102 0.3353,6.44372 1.40499,9.42224 1.17215,3.09189 2.10518,6.42577 1.5138,9.75244 -0.33693,2.32836 -1.01739,4.58898 -1.48606,6.89216 -1.23306,5.32758 -2.40898,10.86164 -1.44083,16.33325 0.31639,1.96115 0.27028,3.98204 0.64261,5.92419 0.64832,1.56657 2.7483,1.4732 3.68652,2.778 1.30518,1.6024 1.39613,3.75278 2.16697,5.59248 0.90261,2.04879 3.33234,2.6106 4.59495,4.35424 0.94379,1.03434 1.42568,2.42615 1.4352,3.81326 0.0693,0.90041 0.23168,2.36817 1.44555,2.27414 1.02575,0.0871 2.31096,-0.31778 3.06755,0.6136 1.7515,1.42969 3.29116,3.11418 5.17824,4.37385 3.71742,2.87452 7.60505,5.53169 11.48421,8.17874 5.08141,2.6611 10.75732,4.12263 15.51599,7.40522 1.24089,0.80046 2.41586,1.69645 3.60281,2.57344 1.34094,0.14395 2.72696,-0.52893 4.02054,0.0778 4.83215,1.22062 9.48603,3.41534 14.53718,3.57294 1.33368,-0.0655 2.93454,-0.16127 3.85563,1.0069 0.93106,0.91802 2.00982,1.89903 3.38965,1.9153 3.71607,0.80668 7.46729,2.046 11.3159,1.65442 3.30315,-0.30557 5.89338,-2.67348 8.0686,-4.97733 5.60783,-5.91634 11.02967,-12.00709 16.40083,-18.13827 6.76564,-7.8364 13.56643,-15.64712 20.06792,-23.70548 1.15724,-1.75457 1.15117,-3.97028 0.8125,-5.96875 -0.40259,-2.20713 -1.79612,-4.21953 -3.84792,-5.18626 -3.57129,-2.07524 -7.50507,-3.48626 -10.91514,-5.84952 -2.63707,-1.74667 -5.37864,-3.48237 -7.42444,-5.93297 -1.29935,-1.4543 -1.74383,-3.46178 -1.50209,-5.36445 0.42349,-3.91706 1.58731,-7.78742 1.25982,-11.76227 -0.0339,-1.63214 -0.5942,-3.19982 -0.72648,-4.81078 -0.0863,-1.03905 1.20554,-1.44485 1.1875,-2.46875 0.0845,-1.05482 -0.99972,-1.349 -1.8125,-1.53125 -1.48848,-0.55706 -2.30545,-1.96977 -3.0367,-3.2821 -1.7837,-2.94385 -3.14273,-6.11681 -4.69767,-9.18039 -1.72044,-3.90044 -2.65645,-8.09356 -3.17749,-12.31031 -0.51473,-2.82622 -1.44419,-5.6294 -3.1664,-7.95491 -1.50062,-3.18693 -0.94812,-6.80026 -1.10335,-10.205 0.10355,-5.09641 0.93056,-10.18808 2.61911,-15.00479 0.84252,-3.2003 1.6228,-6.66271 0.56672,-9.90759 -0.87679,-2.33774 -3.41156,-3.31621 -5.58497,-4.0843 -3.24813,-1.14466 -5.53244,-4.26918 -9.04425,-4.78936 -2.96615,-0.84512 -5.06016,-3.25 -7.08986,-5.42291 -2.91979,-3.1365 -5.41008,-6.65518 -8.50398,-9.63343 -1.69246,-2.02473 -2.14749,-4.70414 -3.07489,-7.10611 -2.04776,-6.10015 -3.56877,-12.5576 -2.9224,-19.03051 0.30286,-4.15587 1.36013,-8.21775 1.68488,-12.36954 -0.0675,-0.96581 0.13471,-2.11068 -0.4375,-2.9375 l -0.0625,-0.0625 -0.0937,0.0312 z"
           style="fill:none;stroke:#ffffff;stroke-width:10;stroke-linecap:butt;stroke-linejoin:miter;stroke-miterlimit:4;stroke-opacity:1;stroke-dasharray:none;filter:url(#filter3912)" />
        <path
           sodipodi:nodetypes="cssssssssssssssssssssssssssssssscsssssssssssssssssssssssssssssssssssssssssssssssssssssssssssssssssssssssssssssssssssssssssssssssccccccccccccccccccccccccccccccccc"
           inkscape:connector-curvature="0"
           id="path3916"
           d="m 442.5,335 c -1.22638,1.69595 -2.00442,3.73441 -2.57051,5.7508 -1.15912,4.55566 -1.21988,9.3008 -2.22122,13.88871 -0.9434,4.94208 -2.67574,9.94234 -6.12305,13.71277 -3.81992,4.09646 -9.26379,6.55423 -14.82758,6.93042 -1.02268,-0.0539 -1.5019,1.27102 -0.80166,1.95535 1.16963,1.2572 3.374,1.30801 4.13946,2.99562 0.58644,1.71088 -0.31702,3.52165 -1.23204,4.94876 -0.44221,1.10176 -1.81211,1.00045 -2.76965,1.38007 -2.39167,0.60548 -4.8496,0.98034 -7.22601,1.613 -2.02841,0.87358 -2.92171,3.0664 -3.94252,4.86631 -2.1183,4.54353 -3.03627,9.55635 -5.32842,14.02316 -0.62782,1.07591 -1.44931,2.28513 -1.00542,3.58429 0.25164,1.10613 0.19455,2.27654 -0.32671,3.29306 -4.54098,14.42095 -9.29996,28.78113 -13.21775,43.38907 -1.40879,5.14668 -2.16433,10.45781 -2.43602,15.7814 -0.14269,2.05314 -1.2761,3.89205 -1.4859,5.91846 0.18432,2.25482 2.47384,3.39933 3.36728,5.31755 1.38668,2.70409 1.91836,5.73133 2.8703,8.59716 0.36737,1.06706 0.65097,2.27872 1.48117,3.08529 0.87247,0.62246 2.2197,0.78319 3.03125,-0.0312 0.88092,-0.39682 2.01091,0.42337 1.9375,1.375 0.72415,2.12258 1.04318,4.66279 2.96875,6.09375 1.33221,0.81853 3.23692,0.66191 4.1875,2.0625 2.07647,1.79321 5.00851,1.25622 7.4375,2.125 3.41741,1.42512 5.41589,4.71263 7.67718,7.45486 2.69604,3.41198 5.99715,6.66248 10.26032,7.95139 1.2085,0.2471 2.8151,0.75734 3.73723,-0.36305 0.70016,-0.78835 0.73696,-1.81027 -0.26645,-2.33472 -0.77592,-0.94047 -1.3842,-2.09246 -1.56453,-3.30223 0.007,-1.31205 1.39162,-1.02745 2.15625,-0.5625 1.28868,0.5502 1.54898,-1.01675 1.86816,-1.89266 0.65402,-1.64702 2.30594,-3.15899 4.19434,-2.82609 0.97769,-0.12829 1.14594,1.61714 0.0625,0.9375 -0.55039,-0.68414 -1.62603,-0.49438 -2.17951,0.1179 -0.69204,0.92874 -1.07988,2.10087 -1.16424,3.2571 -0.13988,1.43113 0.408,2.80851 1.24672,3.94081 1.68181,2.8841 4.03686,5.28975 5.97203,7.99669 0.9953,0.58851 1.77416,-0.58496 2.5,-1.09375 1.91014,-0.81844 3.83313,0.34028 5.60134,0.9889 0.94314,0.57373 1.85681,-0.21923 2.71116,-0.5514 1.05018,-0.34577 1.69083,0.86163 2.15625,1.59375 1.35475,2.02021 3.02276,3.96686 5.31631,4.93206 4.62973,2.71129 10.67707,3.37562 15.52744,0.84919 2.936,-1.46301 5.1851,-4.09855 6.46875,-7.09375 0.19979,-1.88956 -1.17687,-3.60578 -0.78125,-5.5 1.49384,-1.7966 4.0249,-1.63936 6.07968,-2.24531 3.85013,-1.20796 6.45333,-4.49146 9.09549,-7.33925 4.50215,-4.96302 9.01568,-10.00713 12.42897,-15.80184 1.78216,-3.65285 2.5366,-7.89414 5.33336,-10.9886 1.78714,-1.71519 3.97879,-2.90311 6.09375,-4.15625 1.1272,-0.34434 1.59952,1.6937 0.5,1.96875 -1.23047,0.55336 -2.61077,1.19244 -3.1875,2.5 -0.13296,1.10379 1.75328,1.27774 2,0.28125 1.91335,-2.69977 4.0427,-5.53521 4.28466,-8.95772 0.39525,-4.48399 0.87215,-8.97899 1.96534,-13.35478 1.00253,-0.2253 0.66012,-2.16236 -0.40625,-1.84375 -3.22091,2.28586 -5.036,5.89968 -7.11592,9.14327 -1.20809,1.61504 -2.24232,3.70041 -4.29033,4.35673 -1.482,0.3456 -2.78353,-0.94424 -3.29164,-2.23015 -1.3547,-2.77488 -2.09265,-5.8829 -3.95344,-8.38858 -0.72917,-1.25226 -2.66678,-0.43259 -2.87992,0.80623 -0.34057,2.22768 0.08,4.58547 -0.78125,6.71875 -0.66623,0.97445 -2.15624,0.1778 -2.28125,-0.8125 -1.68587,-4.75018 -3.06086,-9.71913 -5.98917,-13.89634 -1.5283,-2.25561 -3.64585,-4.05451 -5.07333,-6.38491 0.51328,-2.94122 1.22453,-5.84516 2.03125,-8.71875 0.48863,-0.84498 1.7013,-1.43974 1.46875,-2.5625 -2.45114,-2.29928 -5.47206,-3.84524 -8.09649,-5.92296 -1.51992,-1.07777 -3.03984,-2.15553 -4.55976,-3.23329 -1.67581,-3.46679 -1.11252,-7.40597 -1.30328,-11.12007 0.1719,-4.0649 0.51072,-8.12127 0.99078,-12.16118 -0.15715,-1.09504 -1.31496,-1.58572 -2.25,-1.875 -1.70511,-1.3243 -1.76839,-3.67739 -2.15625,-5.625 -0.54724,-3.37353 -0.88111,-6.80075 -0.625,-10.21875 -0.31534,-2.11264 -1.6182,-4.0586 -1.375,-6.25 -0.20588,-2.57722 -2.98863,-4.11657 -3,-6.75 -0.50455,-1.9249 -3.019,-2.66258 -4.65625,-1.71875 -1.56963,0.48162 -3.49025,1.16279 -4.9375,0 -0.75444,-0.64183 -1.30588,-1.56118 -1.375,-2.5625 -2.35476,-4.4651 -7.07287,-6.96119 -9.81175,-11.12613 -2.18033,-3.53439 -2.63314,-7.762 -3.41377,-11.75675 -0.88919,-4.76766 -1.39317,-9.59843 -2.30747,-14.36286 0.0185,-0.2971 -0.21967,-0.69559 -0.56076,-0.56676 z m -10,177.09375 c -0.0628,0.21806 -0.17134,-0.13336 0,0 z"
           style="fill:none;stroke:#ffffff;stroke-width:3;stroke-linecap:butt;stroke-linejoin:miter;stroke-miterlimit:4;stroke-opacity:1;stroke-dasharray:none;filter:url(#filter3918)" />
        <path
           sodipodi:nodetypes="cssssssssssssssssssssssssssssssscsssssssssssssssssssssssssssssssssssssssssssssssssssssssssssssssssssssssssssssssssssssssssssssssccccccccccccccccccccccccccccccccc"
           inkscape:connector-curvature="0"
           id="path3927"
           d="m 442.59375,348.5 c -0.42198,1.29488 -0.59898,2.66993 -1.28125,3.875 -1.06458,2.06402 -2.33428,4.01822 -3.36584,6.10116 -2.78168,4.86073 -5.55769,9.98669 -10.11302,13.43221 -2.44905,1.88495 -5.02203,3.72765 -6.86489,6.24788 -0.51751,1.49807 -0.67666,3.45247 -2.28125,4.21875 -2.60046,2.09181 -5.3011,4.06445 -7.93649,6.10308 -1.95582,2.2801 -2.75657,5.27859 -4.52548,7.68349 -2.37081,4.1331 -4.47507,8.41299 -6.88178,12.52593 -0.73456,2.57671 -0.9348,5.31381 -2.13579,7.74571 -3.26444,8.13077 -6.27603,16.37251 -8.7877,24.76877 -2.68921,9.21207 -5.00408,18.60093 -5.72574,28.19722 -0.15593,1.87059 -0.17714,3.76689 -0.47108,5.61798 -0.52837,1.70854 -1.73603,3.57151 -0.8234,5.36206 1.02972,1.79763 2.90604,3.11254 3.38121,5.21451 1.42425,2.86897 1.91227,6.05898 2.59375,9.15625 0.96858,2.09555 3.84185,2.42159 4.62398,4.64091 0.72488,1.68751 0.74461,3.55368 0.78227,5.35909 0.52846,0.97906 1.92695,0.71811 2.6875,0.15625 1.84654,-0.27932 3.06963,1.41057 4.40625,2.375 4.5674,3.69323 9.64892,6.67821 14.44143,10.05685 3.3215,1.93435 7.12495,2.83385 10.45117,4.75659 1.72311,0.90073 3.69009,1.42805 5.20968,2.66384 1.13817,1.24531 2.48572,2.33265 4.12373,2.82322 1.11697,0.35383 2.28218,-0.31847 3.40699,0.0806 2.4432,0.48234 4.72306,1.54664 7.13663,2.15182 1.73475,0.49031 3.45387,1.10898 5.23037,1.40457 0.99096,-0.19253 1.49586,-1.29759 1.25,-2.21875 0.1602,-1.00491 1.95835,-0.80232 1.78585,0.27301 0.44739,1.68095 2.23251,2.35942 3.42449,3.42826 1.77764,1.33693 3.99585,1.97286 6.1853,2.15737 3.8108,1.00764 7.9893,1.52945 11.76787,0.12211 3.56188,-1.77927 5.90778,-5.13162 8.53039,-7.99967 8.37641,-9.50683 16.89166,-18.90166 24.84521,-28.76971 2.8486,-3.59741 5.61753,-7.28517 7.89839,-11.27387 0.84678,-1.61266 1.00516,-3.83243 -0.43479,-5.16713 -1.66648,-1.69685 -3.85985,-2.72406 -5.76393,-4.12008 -3.22543,-2.14385 -6.45085,-4.28769 -9.67628,-6.43154 -0.70984,-0.78742 -0.19074,-2.29798 -1.34375,-2.75 -1.91729,-0.42757 -4.19848,0.29583 -5.8125,-1.125 -1.66779,-2.05044 -1.32142,-4.89817 -0.71875,-7.28125 0.92392,-4.13574 2.20591,-8.44615 1.1875,-12.6875 -0.27289,-1.27324 -0.59561,-2.5337 -0.96875,-3.78125 0.38542,-1.13542 0.77083,-2.27083 1.15625,-3.40625 -2.0788,0.21994 -4.02872,-1.47957 -4.4375,-3.46875 -3.81213,-8.50078 -7.23796,-17.19135 -11.65625,-25.40625 -0.83652,-1.07336 -2.55941,-1.60393 -2.625,-3.15625 -1.59137,-6.22327 -3.43249,-12.38895 -5.6875,-18.40625 -1.37647,-2.13922 -2.52149,-4.46137 -3.03125,-6.96875 -2.00248,-3.92588 -5.70604,-6.81124 -7.125,-11.0625 -1.8324,-2.2886 -5.20742,-2.8938 -6.5625,-5.625 -3.34403,-4.57974 -5.23909,-9.97867 -7.71875,-15.03125 -0.39037,-0.92628 -0.53026,-2.28086 -1.65625,-2.59375 l -0.0937,0.0312 z"
           style="fill:none;stroke:#ffffff;stroke-width:3;stroke-linecap:butt;stroke-linejoin:miter;stroke-miterlimit:4;stroke-opacity:1;stroke-dasharray:none;filter:url(#filter3941)" />
      </g>
    </g>
    <g
       id="g4002"
       transform="matrix(0.5661932,0,0,0.64685923,8.3267508,139.00784)"
       inkscape:export-filename="/home/kyle2/Development/Tools/GoDot_Engine/SuperSanta/GodotProject/RawAssets/Particles/flame3.png"
       inkscape:export-xdpi="90"
       inkscape:export-ydpi="90">
      <path
         sodipodi:nodetypes="cssssssssssssssscssssssssssssssssssssssssssssssscccccccccccccccccssssssssssssssscssssssssssssssscssssssssssssssscssssssssssssssssssssssssssssssssssssssssssssssscsssssssssssssssccccccccccccccccc"
         inkscape:connector-curvature="0"
         id="path3952"
         d="m 470.53125,690.21875 c -6.61172,4.12289 -11.91267,10.79994 -13.28312,18.58603 -1.18656,6.77566 0.36066,13.59636 1.00945,20.34298 0.20771,2.68868 0.40919,5.41816 0.0862,8.10224 -0.37357,2.8096 -1.90719,5.30742 -3.84136,7.32196 -2.34312,2.65966 -4.94353,5.0793 -7.29109,7.73577 -6.50441,6.81939 -13.2788,13.40506 -19.33906,20.62878 -0.95529,1.61968 -2.01229,3.30681 -3.76551,4.14816 -3.43195,2.5017 -4.76015,6.74908 -6.13392,10.57271 -2.25607,6.51659 -6.92956,11.73859 -11.06479,17.11855 -2.19385,2.81237 -4.53638,5.53392 -6.56966,8.4563 -0.66643,1.50742 -0.38208,3.35675 -1.49461,4.67402 -1.58417,0.66262 -3.61509,-0.38227 -4.9375,1 -1.27727,0.85559 -2.49598,1.79625 -3.59375,2.875 -0.28368,1.91191 -2.54044,2.47318 -3.28125,4.125 -2.01773,1.93818 -4.90762,2.44444 -7.47846,3.2958 -1.70514,0.40943 -3.33049,1.11877 -4.78745,2.07818 -1.0946,0.4844 -2.51934,0.25488 -3.29659,-0.68648 -3.96716,-0.8097 -7.85636,0.80045 -11.51972,2.12139 -2.92882,1.31488 -5.67023,3.0539 -8.04278,5.22236 -0.0822,1.95192 -2.28824,2.50282 -3.43995,3.70197 -3.66029,3.76275 -6.34697,8.32248 -9.7163,12.32928 -1.70831,2.42151 -2.92996,5.14592 -4.63588,7.5731 -3.05243,4.71892 -6.06496,9.46907 -9.22926,14.11197 -1.24298,1.7378 -2.68442,3.34127 -4.37607,4.64354 -1.19469,1.52045 -1.9409,3.42338 -3.56476,4.57813 -1.36871,1.20612 -2.63534,2.54221 -3.5376,4.13635 -1.77017,2.40427 -3.62442,4.79991 -4.95353,7.47729 -0.2939,1.62826 -0.43132,3.28287 -0.78892,4.90361 -0.87973,6.07832 0.85457,12.23593 3.55118,17.64988 3.61116,7.22174 8.72647,13.72506 11.12859,21.51988 2.41495,7.82003 1.79527,16.09831 2.66365,24.14395 0.58151,6.449 1.82271,13.05482 5.27385,18.6373 2.07473,3.02563 4.84731,5.6583 8.16973,7.25539 1.79679,0.64328 3.67152,1.04108 5.45161,1.73967 6.54031,2.176 13.07334,4.37429 19.61137,6.55626 3.63375,1.14733 7.29038,2.32723 11.0627,2.91233 2.84494,0.382 5.72176,0.01 8.46971,-0.7651 4.76551,-1.17705 9.37314,-2.93787 13.9025,-4.8057 5.87891,-3.0132 11.47304,-6.72155 16.14896,-11.41416 3.08495,-3.21051 5.74076,-6.80465 8.15217,-10.54119 1.03685,-1.00866 2.7399,-1.81979 2.65625,-3.5 0.64231,-3.56511 3.12137,-6.46585 3.86425,-10.00356 4.16498,-12.83224 8.9325,-25.46291 14.08894,-37.92769 1.6345,-4.13981 3.40028,-8.64155 2.34822,-13.15284 -0.81841,-3.52256 -4.03192,-6.24299 -7.60738,-6.62926 -2.23147,-0.38888 -4.49086,0.10939 -6.72528,-0.005 -1.69266,-0.28946 -3.50665,-0.52051 -5.09278,0.31423 -4.41774,1.494 -9.04823,2.21465 -13.5917,3.22011 -5.50745,1.15363 -11.02231,2.27138 -16.53427,3.40316 -1.09769,-0.30967 -0.84707,-2.05517 0.1875,-2.28125 3.65554,-2.91831 7.55142,-6.09413 9.10016,-10.67889 0.72604,-3.20848 -1.057,-6.28441 -2.83641,-8.81134 -3.49754,-5.15574 -7.20542,-10.27823 -9.38875,-16.16602 -0.14256,-2.15875 1.8319,-3.58376 3.5,-4.53125 6.58282,-4.83316 13.1286,-9.8386 20.53125,-13.375 0.8472,-0.9756 0.86495,-2.90266 2.4375,-3.0625 3.706,0.52446 7.20301,-1.32736 10.12808,-3.40212 5.39743,-2.96202 10.27828,-7.34318 12.74223,-13.08381 1.86158,-5.25359 0.99882,-10.89212 0.52922,-16.30048 -0.55517,-6.33627 -0.61713,-12.89475 1.51751,-18.97019 3.05259,-10.30725 6.47337,-20.5395 10.97721,-30.31316 0.58675,-1.19479 1.26463,-2.35736 2.137,-3.36774 0.0913,-3.90544 2.68868,-7.0592 4.09592,-10.54826 2.06011,-4.27099 4.46569,-8.45772 5.57914,-13.10233 0.68663,-4.96985 -1.43501,-9.68542 -2.78358,-14.3548 -1.79937,-5.85581 -3.53789,-11.97891 -2.79049,-18.16358 0.7681,-6.71307 4.46748,-12.78525 9.26408,-17.41485 0.63582,-0.71704 1.66813,-1.27847 1.94743,-2.19743 -0.2423,-0.30113 -0.71026,0.30225 -1,0.34375 z"
         style="fill:none;stroke:#ffffff;stroke-width:3;stroke-linecap:butt;stroke-linejoin:miter;stroke-miterlimit:4;stroke-opacity:1;stroke-dasharray:none" />
      <path
         style="fill:none;stroke:#ffffff;stroke-width:3;stroke-linecap:butt;stroke-linejoin:miter;stroke-miterlimit:4;stroke-opacity:1;stroke-dasharray:none;filter:url(#filter3964)"
         d="m 452.34375,682.53125 c -3.3803,2.46194 -4.80652,6.90049 -8.5625,8.9375 -1.52296,2.71098 -0.58508,5.88254 -0.71875,8.8125 0.35108,10.1694 0.63473,20.48069 -1.51685,30.48887 -0.85203,3.77649 -3.07588,7.20127 -6.16798,9.52917 -6.6998,5.93979 -15.0523,9.82928 -21.12839,16.50039 -3.62528,3.84085 -7.23688,7.85557 -9.39047,12.74146 -1.84164,3.55513 -4.10758,6.8734 -6.47181,10.09112 -1.3917,2.8144 -3.37394,5.42288 -6.05583,7.11312 -1.41086,1.25108 -0.92299,3.31092 -1.45312,4.91334 -0.57377,0.85682 -0.91727,1.88777 -0.62805,2.90378 0.038,1.07579 -1.33159,1.18141 -2.125,1.03125 -1.2057,-0.13246 -1.3735,1.34594 -1.08673,2.20736 0.20188,1.60802 -0.32632,3.29883 -1.58132,4.35765 -2.06586,2.59403 -4.6253,4.72779 -7.08195,6.93499 -4.37026,1.5934 -8.56622,3.6172 -12.89902,5.30694 -3.53949,1.41042 -6.92122,3.17541 -10.29137,4.93926 -1.22192,0.63528 -2.26402,1.57847 -3.32309,2.41544 -1.71681,0.58646 -3.55605,-0.53779 -5.25212,0.21824 -2.61868,0.5233 -5.48736,-0.79915 -7.92545,0.67765 -1.26046,0.78652 -1.80114,2.2469 -2.68395,3.37997 -0.7727,-1.12814 -1.28118,0.3474 -1.27416,1.1187 -0.25421,2.35557 -1.16238,4.84248 -3.19459,6.22505 -1.06873,1.09766 -1.13745,2.75126 -1.98327,3.99778 -2.41418,4.38106 -5.50415,8.33814 -8.16817,12.5642 -6.84201,10.23905 -13.72177,20.46406 -21.219,30.24016 -2.20825,2.92943 -4.33194,5.92493 -6.31706,9.01036 -0.88508,0.86359 -2.19057,1.02819 -3.125,1.8125 -0.0804,1.70979 1.65914,3.16809 0.9375,4.90625 -0.44754,1.99195 0.1052,4.06893 1.09375,5.8125 0.0626,1.36857 -0.70933,2.83507 0.0913,4.11016 2.69424,7.84981 6.60486,15.20726 9.41432,23.01243 4.29584,11.46046 5.72763,23.69143 8.41469,35.56985 0.94878,3.96762 1.57727,8.1798 3.87124,11.64536 2.85696,4.3002 7.43115,7.07605 12.0878,9.06946 7.99748,3.8649 16.43095,6.95445 25.18505,8.56035 7.12686,1.27387 14.54694,1.77768 21.63983,0.0192 6.73765,-1.56127 12.50758,-5.68068 17.62953,-10.16681 3.49822,-2.9881 6.8926,-6.12963 9.72931,-9.76797 3.70805,-4.6665 6.5741,-9.93198 8.94677,-15.38416 4.86799,-10.9181 8.70843,-22.25025 12.85075,-33.45335 2.41338,-6.7671 4.94741,-13.59527 5.7644,-20.77707 0.1009,-1.95376 -1.10302,-3.97789 -3.05216,-4.49379 -3.48783,-1.49176 -7.3747,-1.28448 -11.08354,-1.20532 -7.09822,0.43728 -14.00122,2.28552 -21.02123,3.29867 -4.34353,0.78973 -8.68705,1.57946 -13.03057,2.36919 -1.30628,-0.0492 -1.57662,-2.19078 -0.375,-2.625 6.26122,-4.27709 8.41625,-13.48237 4.73571,-20.10554 -2.02067,-3.78081 -4.8678,-7.16995 -6.1256,-11.32135 -0.76751,-2.26595 -0.2769,-4.79117 1.07769,-6.72987 1.92286,-2.8201 5.08354,-4.39851 7.80544,-6.32498 10.82912,-7.17532 22.34833,-13.46619 32.07532,-22.17049 1.95514,-1.7504 3.75351,-3.75807 4.68144,-6.25402 1.67491,-4.03405 1.47741,-8.49508 1.625,-12.77656 0.0492,-7.82483 -0.41203,-15.84702 1.97584,-23.41307 3.06041,-9.86053 7.29722,-19.29767 11.30667,-28.79652 2.79315,-6.62991 5.75416,-13.20022 8.11629,-20.00067 0.87674,-2.4946 1.39904,-5.08875 1.6061,-7.72372 0.80539,-7.98683 -0.65346,-16.01151 0.13157,-23.99632 0.31103,-3.30056 0.96891,-6.5851 0.9833,-9.90285 -0.13137,-2.34212 -0.8083,-4.66088 -2.02602,-6.67154 -0.716,-2.61938 1.06862,-4.91857 2.0625,-7.1875 0.88844,-1.8522 1.90214,-3.77704 2.625,-5.625 l -0.125,0.0312 z"
         id="path3954"
         inkscape:connector-curvature="0"
         sodipodi:nodetypes="cssssssssssssssscssssssssssssssssssssssssssssssscccccccccccccccccssssssssssssssscssssssssssssssscssssssssssssssscssssssssssssssssssssssssssssssssssssssssssssssscsssssssssssssssccccccccccccccccc" />
      <path
         style="fill:none;stroke:#ffffff;stroke-width:10;stroke-linecap:butt;stroke-linejoin:miter;stroke-miterlimit:4;stroke-opacity:1;stroke-dasharray:none;filter:url(#filter3982)"
         d="m 477.96875,684.9375 c -2.25125,4.8791 -5.89929,9.1516 -7.03706,14.50805 -1.18231,4.27968 -2.86154,8.70447 -1.94413,13.20504 0.37399,2.52291 0.14574,5.1017 -0.55617,7.54491 -1.31848,6.16257 -0.22041,12.60057 -1.9428,18.70101 -0.63849,2.58496 -1.84786,4.98412 -3.29126,7.20717 -3.6087,5.76534 -8.55728,10.50002 -12.86792,15.71795 -8.51063,9.76811 -16.71344,19.82823 -24.06069,30.50841 -3.71015,5.23297 -7.67335,10.60794 -13.36775,13.82428 -2.80491,1.70658 -5.80534,3.22569 -8.21504,5.47042 -1.84678,2.96726 -2.88309,6.39392 -4.9467,9.23024 -0.67218,1.28496 -0.95346,2.72914 -1.23848,4.1149 -1.02881,1.84561 -2.75807,3.46287 -4.87052,3.88789 -2.18052,0.12299 -4.48413,-0.68688 -6.55645,0.31584 -2.40875,0.68356 -4.99939,0.98881 -7.44318,0.3082 -1.67962,-0.25288 -3.48513,-0.0263 -5.08585,-0.56476 -0.81892,-0.74698 -1.3441,-2.2305 -2.69631,-2.0108 -3.04865,0.0567 -5.87304,1.34599 -8.72344,2.28125 -0.86269,0.75233 -1.01499,2.0459 -2.03551,2.66051 -3.1189,3.07896 -5.84582,6.74161 -7.08949,10.99574 0.008,1.33105 0.3831,2.98071 -0.82879,3.92723 -5.14774,6.89695 -10.94833,13.38582 -14.98371,21.04152 -3.5508,6.1063 -6.85331,12.56304 -12.09177,17.43308 -2.30482,2.12728 -4.93702,3.89287 -7.65823,5.44192 -1.4768,0.496 -3.4566,0.42814 -4.24836,2.0329 -1.09199,2.16488 -3.55559,3.7192 -3.61123,6.33672 -0.27493,3.79479 0.95705,7.47451 1.95873,11.08136 0.93191,2.53568 3.21244,4.45405 5.81591,5.09636 1.76206,0.73664 3.13398,2.32114 3.56596,4.18198 3.33276,7.45766 6.75589,14.8971 9.42265,22.62562 0.93382,2.63174 1.67976,5.32164 2.11264,8.08307 1.03778,5.53312 2.06979,11.13194 4.36208,16.31058 1.51577,3.91721 2.61819,8.14752 2.02787,12.37172 0.0219,2.24173 1.72981,4.06555 3.61223,5.05547 3.4374,2.57659 4.68892,7.32063 8.65189,9.30298 2.36531,1.2066 4.92373,1.97688 7.35312,3.04061 7.9388,3.07595 16.21254,5.63123 24.75944,6.13003 7.2408,0.5001 14.61417,-0.802 21.1657,-3.95478 8.19676,-3.74351 15.23574,-9.70417 20.92873,-16.63629 1.64492,-2.06182 3.57517,-3.90071 5.08726,-6.06141 1.55613,-2.64636 2.3442,-5.65723 3.81655,-8.34361 3.2614,-7.20356 5.68374,-14.73747 8.37239,-22.16301 2.86586,-8.24831 5.65098,-16.53669 7.88831,-24.98075 0.56457,-2.44827 0.9617,-4.95957 0.92688,-7.4783 -1.04579,-4.16837 -5.27358,-6.98225 -9.46323,-7.04858 -2.56071,-0.24313 -5.21758,-0.61291 -7.72427,0.17358 -2.88297,0.10557 -5.81798,-1.59925 -8.625,-0.3125 -5.00246,2.63272 -10.25378,5.26961 -16.00495,5.57194 -1.35033,0.0254 -2.79619,0.30161 -4.0888,-0.16569 -1.02891,-0.86453 -0.60944,-2.72717 0.59375,-3.21875 4.92955,-3.78509 6.71059,-11.20219 3.762,-16.72601 -2.38177,-4.96109 -5.4667,-9.53954 -7.98075,-14.43024 -0.38829,-1.98377 1.37656,-3.41133 2.34745,-4.91515 3.77677,-4.94748 8.42989,-9.27201 13.8088,-12.4286 2.33729,-0.86434 5.15068,0.36113 7.25,-1.28125 1.42112,-1.57646 2.09584,-4.08906 4.34375,-4.71875 5.58573,-2.70379 11.57825,-5.07091 15.96875,-9.625 3.61403,-4.6622 4.71861,-10.92047 3.6875,-16.65625 -0.71204,-6.83932 -0.50172,-13.86696 1.52617,-20.4797 1.11236,-4.56821 2.22556,-9.40188 5.38008,-13.05155 0.97997,-1.34976 1.5992,-3.0897 1.125,-4.75 0.3232,-3.33278 2.1919,-6.23292 3.10993,-9.39976 2.96434,-7.15814 6.48545,-14.11736 8.63631,-21.58585 1.54367,-4.71797 3.72839,-9.2413 4.80262,-14.1026 0.65073,-5.45802 -1.32529,-10.72823 -2.11703,-16.06137 -1.49412,-7.92006 -2.41527,-16.12381 -0.8657,-24.1106 1.28598,-6.74501 4.39248,-12.93174 6.49637,-19.42732 -0.13542,0.32292 -0.27083,0.64583 -0.40625,0.96875 z"
         id="path3968"
         inkscape:connector-curvature="0"
         sodipodi:nodetypes="cssssssssssssssscssssssssssssssssssssssssssssssscccccccccccccccccssssssssssssssscssssssssssssssscssssssssssssssscssssssssssssssssssssssssssssssssssssssssssssssscsssssssssssssssccccccccccccccccc" />
    </g>
    <g
       id="g4026"
       transform="translate(230.36891,78.280699)">
      <path
         style="fill:#ffffff;stroke:none;stroke-width:2.76455164000000009;stroke-linecap:butt;stroke-linejoin:miter;stroke-miterlimit:4;stroke-opacity:1;stroke-dasharray:none;opacity:0.14977974"
         d="m 215.10583,325.33081 c 0.59881,0.5838 1.29613,1.36111 1.021,2.26305 0.2633,4.87986 0.11512,9.78426 0.71016,14.64367 0.32946,3.64091 1.2612,7.30096 3.27598,10.39106 1.03413,1.91936 1.36613,4.25346 0.65767,6.341 -1.23239,4.95998 -4.05761,9.28749 -6.21464,13.86526 -2.06278,4.14633 -4.28718,8.33907 -7.68837,11.55978 -3.68585,3.9371 -7.7595,7.68716 -10.20744,12.57534 -1.33796,2.59322 -1.88786,5.63607 -1.2443,8.50681 0.67565,4.08656 2.25943,8.11732 1.78782,12.31971 -0.42271,4.99662 -3.25198,9.33062 -4.38129,14.1497 -0.68022,2.98665 -0.84414,6.05731 -1.25138,9.08652 -0.57802,5.30327 -1.10804,10.62364 -1.1756,15.96162 -0.0321,6.97311 0.87352,13.9805 3.05133,20.61912 1.19588,3.99456 2.60604,7.98849 2.9297,12.17289 -0.17244,3.01639 -1.37342,6.01007 -0.71015,9.04429 0.85156,2.45673 3.15538,3.90524 5.11664,5.41192 4.28698,3.71206 7.23534,8.62078 10.68112,13.0593 1.81576,2.46966 3.70705,4.88915 5.78775,7.14275 1.36025,0.67426 3.0077,-0.6499 2.97428,-2.08325 1.16526,-4.90181 3.29673,-9.63153 3.43862,-14.73337 -0.36614,-3.45157 -1.36822,-6.97228 -0.51811,-10.43007 0.57693,-2.19548 1.99804,-4.06578 3.68455,-5.54124 1.48768,-1.4613 1.84234,-3.62829 1.85345,-5.62675 0.0562,-1.49852 -0.11856,-3.08636 0.62748,-4.45515 0.99998,-2.14504 3.02525,-3.54983 4.18028,-5.59306 1.30438,-2.10903 2.38202,-4.3577 3.82644,-6.37937 1.06452,-1.72123 1.29861,-3.76144 1.65063,-5.71015 0.47003,-2.35945 1.37726,-4.64428 2.80228,-6.59203 1.15869,-1.85315 2.29646,-4.0185 1.85414,-6.27355 -0.63814,-2.91272 -2.74378,-5.19754 -3.67409,-7.99947 -1.14517,-2.8705 -1.82752,-5.92427 -3.1931,-8.70445 -1.14064,-1.6755 -2.76382,-3.28714 -2.76393,-5.45224 -0.14598,-1.95352 0.4211,-4.10537 -0.69879,-5.86829 -1.37274,-2.0825 -3.77427,-3.48926 -4.44902,-6.0081 -1.37766,-3.83149 -1.81275,-8.06906 -4.13741,-11.50959 -1.45534,-2.04175 -3.68552,-3.66274 -4.28342,-6.21383 -0.71081,-3.79625 -0.18818,-7.70015 0.65338,-11.42969 1.65387,-7.18463 5.04454,-13.90727 6.01131,-21.25922 0.46543,-4.1567 -0.83328,-8.31969 -2.87663,-11.9038 -1.28115,-2.37219 -3.06641,-4.4103 -4.49272,-6.68812 -0.97944,-1.57693 -1.63219,-3.34847 -1.84318,-5.19607 -0.88821,-5.41195 -0.36533,-10.97866 -1.56776,-16.34628 -0.16959,-0.52503 -0.64587,-1.13155 -1.20468,-1.11665 z"
         id="path4028"
         inkscape:connector-curvature="0"
         sodipodi:nodetypes="ccscccccccccccccccccc" />
      <path
         sodipodi:nodetypes="cccccccccccccccccccccccccccccccccccccsssssssssssssccccccc"
         inkscape:connector-curvature="0"
         id="path4030"
         d="m 259.53125,167.25 c 2.9669,4.65664 1.84773,10.4062 2.08121,15.61756 0.60417,13.09094 0.18191,26.36445 3.1575,39.21951 0.7675,3.94663 2.10928,7.76079 4.14895,11.23355 2.64645,4.80117 5.4565,9.97766 4.9682,15.65333 -0.32204,7.02822 -3.83009,13.32126 -6.49538,19.67002 -5.45206,11.22288 -11.59281,22.09568 -17.05716,33.31168 -3.97464,7.51566 -9.109,14.36126 -14.87563,20.58738 -6.09252,7.09039 -11.02566,15.06944 -15.5279,23.2359 -3.79114,6.63223 -8.03285,13.30039 -9.48504,20.91158 -1.4074,11.42646 3.55807,22.75928 1.23619,34.14853 -1.84943,10.14701 -6.00803,19.65902 -8.90004,29.51975 -2.70654,8.5232 -4.46056,17.35424 -4.94228,26.29131 -2.01611,21.79724 -4.86994,43.6875 -3.32957,65.61244 0.85235,11.29125 3.2199,22.41457 6.43458,33.2565 3.32489,12.31642 7.42533,24.56247 8.56922,37.33 -0.23666,7.85726 -3.3473,15.7107 -1.3266,23.55721 2.44442,6.4562 8.58671,10.19601 13.62474,14.44697 9.95633,8.44893 16.65677,19.82616 24.53825,30.06828 5.69637,7.72174 11.38875,15.49655 18.05576,22.42225 2.91862,1.37613 5.90885,-1.84727 5.7465,-4.70407 1.77088,-12.76068 3.91379,-25.46687 5.72068,-38.22289 1.46452,-9.56141 2.71927,-19.18301 4.89895,-28.61075 1.22022,-4.41756 3.61216,-8.46547 6.97762,-11.58729 3.02205,-3.24066 5.03656,-7.51122 4.96875,-12 0.4247,-6.19223 -0.53581,-12.97606 2.96786,-18.47982 3.46566,-5.33831 9.04953,-9.10088 11.68221,-15.02155 3.11216,-5.84763 6.99349,-11.25656 10.05787,-17.12464 3.33901,-7.64032 2.79804,-16.50143 7.02229,-23.82839 3.46836,-5.65925 7.84661,-11.32135 8.24085,-18.21058 0.17018,-5.82038 -3.45668,-10.76053 -6.13208,-15.64238 -2.11474,-3.76652 -3.72088,-7.80153 -5.28269,-11.82373 -2.06716,-5.28546 -3.45357,-10.80223 -5.11881,-16.21266 -2.03534,-4.91048 -7.12592,-8.04449 -8.25,-13.40625 -0.9689,-3.34507 -0.54499,-6.83859 -0.375,-10.25 -0.17655,-5.21926 -2.58224,-10.34365 -6.6915,-13.60964 -4.1487,-4.22494 -7.49429,-9.45769 -8.53859,-15.36004 -2.65525,-9.11154 -4.41494,-18.96923 -10.6095,-26.49942 -3.93199,-4.61593 -9.06925,-8.94422 -10.08779,-15.25195 -1.88831,-13.19895 1.36606,-26.42084 5.0747,-39.01292 4.61252,-15.50953 11.41817,-30.56088 12.9807,-46.82042 0.61152,-12.30603 -4.28225,-24.25522 -11.14039,-34.25293 -4.94156,-6.97125 -10.88269,-13.83699 -12.40328,-22.51592 -2.90518,-14.57908 -1.0543,-29.68613 -4.3408,-44.2053 -0.43852,-1.27571 -0.89806,-2.92947 -2.24355,-3.44021 z"
         style="fill:none;stroke:#ffffff;stroke-width:10;stroke-linecap:butt;stroke-linejoin:miter;stroke-miterlimit:4;stroke-opacity:1;stroke-dasharray:none;filter:url(#filter3817)"
         transform="matrix(0.38611959,0,0,0.38611959,115.36219,260.86848)" />
      <path
         sodipodi:nodetypes="ccscccccccccccccccccc"
         inkscape:connector-curvature="0"
         id="path4032"
         d="m 236.5,76.78125 c 1.61144,26.08586 2.12806,52.23714 4.40625,78.28125 4.19222,12.25304 15.13515,20.17429 25.0648,27.62968 9.74091,6.8118 20.91662,11.97618 28.77895,21.15157 4.6689,9.06247 1.84451,19.57893 -1.25,28.65625 -6.01556,19.92189 -20.08248,37.8268 -39.30472,46.38125 -15.28387,8.08386 -32.91169,12.35045 -45.95178,24.22147 -10.67319,12.54403 -12.2707,30.88318 -6.99745,46.0861 3.54205,12.15101 5.77393,25.19122 2.63185,37.68212 -2.6684,22.02144 -11.27197,43.15214 -24.06311,61.21701 -7.40074,12.89888 -6.81071,28.51861 -4.28354,42.6933 4.76894,28.92025 19.87697,54.51872 29.95088,81.69489 6.5799,17.78719 12.19278,36.20844 22.67988,52.20554 9.85185,15.99387 21.85798,30.48914 33.52549,45.16207 4.24992,3.84041 11.64839,-0.4839 11.375,-5.90625 3.93045,-18.33054 4.78873,-37.12019 6.92543,-55.69098 3.85473,-15.08775 11.93447,-28.6226 16.81244,-43.35874 3.12301,-8.79393 6.84574,-17.4286 12.20603,-25.1124 6.4398,-9.97338 12.07965,-20.5065 15.8591,-31.79014 6.4106,-17.55778 8.08448,-36.40211 8.66575,-54.95399 0.59842,-11.58747 -1.91628,-23.07602 -5.98372,-33.87231 -6.63902,-16.20891 -5.61164,-34.16359 -10.31753,-50.86764 -3.08128,-13.56127 -4.22819,-27.98992 -11.21285,-40.29267 -4.52072,-6.45572 -13.2602,-9.29892 -20.75936,-6.97661 -4.41324,0.8954 -10.55362,-0.0444 -11.80958,-5.16221 -2.14728,-6.61942 2.43666,-12.81373 6.30054,-17.75397 7.90533,-10.31894 18.70136,-18.81792 23.28971,-31.36105 8.96373,-18.31861 14.13471,-39.24556 10.58654,-59.61979 -3.09733,-9.75393 -12.42321,-15.75631 -21.59375,-19.0625 -16.61353,-8.18791 -33.15235,-18.34325 -43.84477,-33.86739 -7.51469,-13.01552 -6.92192,-28.51859 -7.8323,-43.02484 -0.4741,-11.682481 -1.15308,-23.437043 -3.82293,-34.85777 l -0.0303,0.454199 -9.7e-4,0.01455 z"
         style="fill:none;stroke:#ffffff;stroke-width:6.88399982;stroke-linecap:butt;stroke-linejoin:miter;stroke-miterlimit:4;stroke-opacity:1;stroke-dasharray:none;filter:url(#filter3879)"
         transform="matrix(0.40159089,0,0,0.40159089,111.34478,254.13628)" />
      <path
         inkscape:transform-center-y="-14.17447"
         inkscape:transform-center-x="-3.4018726"
         sodipodi:nodetypes="ccscccccccccccccccccc"
         inkscape:connector-curvature="0"
         id="path4034"
         d="m 215.10583,325.33081 c 0.59881,0.5838 1.29613,1.36111 1.021,2.26305 0.2633,4.87986 0.11512,9.78426 0.71016,14.64367 0.32946,3.64091 1.2612,7.30096 3.27598,10.39106 1.03413,1.91936 1.36613,4.25346 0.65767,6.341 -1.23239,4.95998 -4.05761,9.28749 -6.21464,13.86526 -2.06278,4.14633 -4.28718,8.33907 -7.68837,11.55978 -3.68585,3.9371 -7.7595,7.68716 -10.20744,12.57534 -1.33796,2.59322 -1.88786,5.63607 -1.2443,8.50681 0.67565,4.08656 2.25943,8.11732 1.78782,12.31971 -0.42271,4.99662 -3.25198,9.33062 -4.38129,14.1497 -0.68022,2.98665 -0.84414,6.05731 -1.25138,9.08652 -0.57802,5.30327 -1.10804,10.62364 -1.1756,15.96162 -0.0321,6.97311 0.87352,13.9805 3.05133,20.61912 1.19588,3.99456 2.60604,7.98849 2.9297,12.17289 -0.17244,3.01639 -1.37342,6.01007 -0.71015,9.04429 0.85156,2.45673 3.15538,3.90524 5.11664,5.41192 4.28698,3.71206 7.23534,8.62078 10.68112,13.0593 1.81576,2.46966 3.70705,4.88915 5.78775,7.14275 1.36025,0.67426 3.0077,-0.6499 2.97428,-2.08325 1.16526,-4.90181 3.29673,-9.63153 3.43862,-14.73337 -0.36614,-3.45157 -1.36822,-6.97228 -0.51811,-10.43007 0.57693,-2.19548 1.99804,-4.06578 3.68455,-5.54124 1.48768,-1.4613 1.84234,-3.62829 1.85345,-5.62675 0.0562,-1.49852 -0.11856,-3.08636 0.62748,-4.45515 0.99998,-2.14504 3.02525,-3.54983 4.18028,-5.59306 1.30438,-2.10903 2.38202,-4.3577 3.82644,-6.37937 1.06452,-1.72123 1.29861,-3.76144 1.65063,-5.71015 0.47003,-2.35945 1.37726,-4.64428 2.80228,-6.59203 1.15869,-1.85315 2.29646,-4.0185 1.85414,-6.27355 -0.63814,-2.91272 -2.74378,-5.19754 -3.67409,-7.99947 -1.14517,-2.8705 -1.82752,-5.92427 -3.1931,-8.70445 -1.14064,-1.6755 -2.76382,-3.28714 -2.76393,-5.45224 -0.14598,-1.95352 0.4211,-4.10537 -0.69879,-5.86829 -1.37274,-2.0825 -3.77427,-3.48926 -4.44902,-6.0081 -1.37766,-3.83149 -1.81275,-8.06906 -4.13741,-11.50959 -1.45534,-2.04175 -3.68552,-3.66274 -4.28342,-6.21383 -0.71081,-3.79625 -0.18818,-7.70015 0.65338,-11.42969 1.65387,-7.18463 5.04454,-13.90727 6.01131,-21.25922 0.46543,-4.1567 -0.83328,-8.31969 -2.87663,-11.9038 -1.28115,-2.37219 -3.06641,-4.4103 -4.49272,-6.68812 -0.97944,-1.57693 -1.63219,-3.34847 -1.84318,-5.19607 -0.88821,-5.41195 -0.36533,-10.97866 -1.56776,-16.34628 -0.16959,-0.52503 -0.64587,-1.13155 -1.20468,-1.11665 z"
         style="opacity:0.82819368999999998;fill:url(#radialGradient4036);fill-opacity:1;stroke:none" />
      <path
         style="opacity:0.82819368999999998;fill:url(#radialGradient4060);fill-opacity:1;stroke:none;filter:url(#filter4070)"
         d="m 215.07584,394.97337 c 0.37973,0.37022 0.82193,0.86314 0.64746,1.4351 0.16697,3.09453 0.073,6.20461 0.45034,9.28617 0.20892,2.30885 0.79978,4.62985 2.07744,6.58941 0.65578,1.21715 0.86632,2.6973 0.41705,4.0211 -0.78151,3.14533 -2.5731,5.88958 -3.94096,8.79254 -1.3081,2.62936 -2.71868,5.28816 -4.87552,7.33055 -2.33736,2.49668 -4.92063,4.87475 -6.47297,7.97455 -0.84846,1.64447 -1.19717,3.57407 -0.78906,5.39453 0.42845,2.59146 1.4328,5.14753 1.13373,7.81245 -0.26806,3.16856 -2.06222,5.91694 -2.77836,8.97292 -0.43136,1.89396 -0.53531,3.84119 -0.79356,5.76214 -0.36654,3.36303 -0.70265,6.7369 -0.74549,10.12194 -0.0204,4.42194 0.55393,8.86563 1.93497,13.07545 0.75836,2.53312 1.6526,5.06584 1.85785,7.71935 -0.10935,1.91282 -0.87094,3.81124 -0.45034,5.73536 0.54001,1.55792 2.00096,2.47648 3.24468,3.43193 2.71856,2.35397 4.58824,5.4668 6.77335,8.28145 1.15145,1.56612 2.3508,3.10042 3.67026,4.52952 0.86259,0.42758 1.90731,-0.41213 1.88611,-1.32107 0.73894,-3.10845 2.0906,-6.10776 2.18058,-9.34306 -0.23219,-2.18878 -0.86765,-4.42141 -0.32856,-6.61414 0.36586,-1.39225 1.26704,-2.57829 2.33653,-3.51394 0.9434,-0.92667 1.16831,-2.30085 1.17535,-3.56816 0.0356,-0.95027 -0.0752,-1.95719 0.39791,-2.8252 0.63413,-1.36026 1.91844,-2.25109 2.65089,-3.54679 0.82717,-1.33743 1.51054,-2.7634 2.42651,-4.04543 0.67506,-1.0915 0.82351,-2.38529 1.04674,-3.62105 0.29806,-1.49622 0.87337,-2.94513 1.77704,-4.18028 0.73477,-1.17516 1.45628,-2.5483 1.17579,-3.97832 -0.40467,-1.84708 -1.73995,-3.29598 -2.3299,-5.0728 -0.7262,-1.82031 -1.1589,-3.75683 -2.02488,-5.51986 -0.72332,-1.06251 -1.75265,-2.08452 -1.75272,-3.4575 -0.0926,-1.23881 0.26704,-2.60339 -0.44313,-3.72133 -0.87052,-1.3206 -2.39343,-2.21269 -2.82131,-3.80999 -0.87364,-2.42971 -1.14955,-5.11693 -2.62371,-7.29872 -0.92289,-1.29476 -2.33715,-2.32269 -2.7163,-3.94045 -0.45075,-2.40736 -0.11933,-4.88299 0.41434,-7.24805 1.04879,-4.55607 3.19895,-8.81918 3.81202,-13.48137 0.29515,-2.63593 -0.52842,-5.27586 -1.82419,-7.5487 -0.81243,-1.5043 -1.94454,-2.79676 -2.84902,-4.24122 -0.62111,-0.99999 -1.03504,-2.1234 -1.16884,-3.29504 -0.56325,-3.43195 -0.23167,-6.96204 -0.99418,-10.36587 -0.10755,-0.33294 -0.40958,-0.71756 -0.76394,-0.70812 z"
         id="path4058"
         inkscape:connector-curvature="0"
         sodipodi:nodetypes="ccscccccccccccccccccc"
         inkscape:transform-center-x="-2.157272"
         inkscape:transform-center-y="-8.9886331" />
    </g>
  </g>
</svg>
